<svg width="23" height="23" viewBox="0 0 23 23" fill="none" xmlns="http://www.w3.org/2000/svg">
<path d="M6.15889 20.3927C6.42348 20.1213 6.60824 19.686 6.71316 19.3094C6.73457 19.2325 6.74177 19.1527 6.74902 19.0733C6.7909 18.614 7.06699 18.1616 7.42556 17.7937L8.95048 16.2292C9.34297 15.8266 9.99019 15.8266 10.3827 16.2292L11.3192 17.19C11.6137 17.4922 11.6432 17.9494 11.6458 18.3714C11.648 18.7345 11.8003 19.083 12.1025 19.3931C12.6871 19.9929 13.564 19.9929 14.1486 19.3931C14.7333 18.7933 14.7333 17.8937 14.1486 17.2939L12.5902 15.695C12.1741 15.2681 12.2215 14.5744 12.6917 14.2081L21.9478 6.99814C22.191 6.80866 22.3333 6.51757 22.3333 6.20923L22.3333 2C22.3333 1.44772 21.8855 1 21.3333 1L17.2898 1C16.9692 1 16.6681 1.15373 16.48 1.41338L9.58392 10.9339C9.21996 11.4364 8.49103 11.4896 8.05796 11.0453L6.54863 9.49681C5.96402 8.89704 5.08709 8.89704 4.50248 9.49681C3.91786 10.0966 3.91786 10.9963 4.50248 11.596C4.79041 11.8914 5.11237 12.0472 5.44825 12.0632C5.88671 12.0842 6.36795 12.1104 6.67434 12.4247L7.62212 13.3971C8.00066 13.7854 8.00066 14.4047 7.62212 14.7931L6.15889 16.2943C5.76915 16.6941 5.28197 16.994 4.69735 16.994C4.11274 16.994 3.52812 17.3939 3.13838 17.9936C2.74863 18.5934 2.74863 19.4931 3.13838 20.0928C3.82043 21.1924 5.28197 21.2924 6.15889 20.3927Z" fill="white"/>
</svg>
