<svg width="49" height="54" viewBox="0 0 49 54" fill="none" xmlns="http://www.w3.org/2000/svg">
<g filter="url(#filter0_di)">
<path d="M38.9271 16.3112C38.9206 15.7589 38.4722 15.3141 37.9202 15.2962C32.7783 15.1295 28.6972 13.6533 25.2002 10.6332C24.7991 10.2867 24.1999 10.2867 23.7987 10.6332C20.3021 13.6533 16.2212 15.1295 11.0798 15.2962C10.5278 15.3141 10.0795 15.7589 10.073 16.3112C9.9622 25.6954 8.63715 38.4769 24.1742 43.8886C24.3804 43.9605 24.6183 43.9605 24.8246 43.8886C40.3627 38.477 39.0378 25.6955 38.9271 16.3112Z" fill="url(#paint0_linear)"/>
</g>
<defs>
<filter id="filter0_di" x="0" y="0.373352" width="49" height="53.5692" filterUnits="userSpaceOnUse" color-interpolation-filters="sRGB">
<feFlood flood-opacity="0" result="BackgroundImageFix"/>
<feColorMatrix in="SourceAlpha" type="matrix" values="0 0 0 0 0 0 0 0 0 0 0 0 0 0 0 0 0 0 127 0" result="hardAlpha"/>
<feOffset/>
<feGaussianBlur stdDeviation="5"/>
<feComposite in2="hardAlpha" operator="out"/>
<feColorMatrix type="matrix" values="0 0 0 0 0.305882 0 0 0 0 0.85098 0 0 0 0 0.556863 0 0 0 0.4 0"/>
<feBlend mode="normal" in2="BackgroundImageFix" result="effect1_dropShadow"/>
<feBlend mode="normal" in="SourceGraphic" in2="effect1_dropShadow" result="shape"/>
<feColorMatrix in="SourceAlpha" type="matrix" values="0 0 0 0 0 0 0 0 0 0 0 0 0 0 0 0 0 0 127 0" result="hardAlpha"/>
<feOffset dy="1"/>
<feGaussianBlur stdDeviation="0.5"/>
<feComposite in2="hardAlpha" operator="arithmetic" k2="-1" k3="1"/>
<feColorMatrix type="matrix" values="0 0 0 0 1 0 0 0 0 1 0 0 0 0 1 0 0 0 0.3 0"/>
<feBlend mode="normal" in2="shape" result="effect2_innerShadow"/>
</filter>
<linearGradient id="paint0_linear" x1="34.4889" y1="10" x2="34.4889" y2="44" gradientUnits="userSpaceOnUse">
<stop stop-color="#4ED98E"/>
<stop offset="1" stop-color="#45DA81"/>
</linearGradient>
</defs>
</svg>
