<svg width="32" height="32" viewBox="0 0 32 32" fill="none" xmlns="http://www.w3.org/2000/svg">
<path d="M11.1562 24V12.3203H7.52344V24H11.1562ZM9.32031 10.7578C10.4922 10.7578 11.4297 9.78125 11.4297 8.60938C11.4297 7.47656 10.4922 6.5 9.32031 6.5C8.1875 6.5 7.25 7.47656 7.25 8.60938C7.25 9.78125 8.1875 10.7578 9.32031 10.7578ZM24.75 24V17.5938C24.75 14.4688 24.0469 12.0469 20.375 12.0469C18.6172 12.0469 17.4453 13.0234 16.9375 13.9219H16.8984V12.3203H13.4219V24H17.0547V18.2188C17.0547 16.6953 17.3281 15.25 19.2422 15.25C21.0781 15.25 21.1172 16.9688 21.1172 18.3359V24H24.75Z" fill="white"/>
</svg>
