<svg width="15" height="15" viewBox="0 0 15 15" fill="none" xmlns="http://www.w3.org/2000/svg">
<path d="M9.44922 11.4141L11.6367 9.22656L3.54297 1.13281L1.41016 0.777344C1.16406 0.722656 0.945312 0.941406 1 1.1875L1.35547 3.32031L9.44922 11.4141ZM14.8633 13.4102L13.25 11.7695L14.0977 10.1562C14.1797 9.99219 14.1523 9.77344 14.0156 9.63672L13.5508 9.17188C13.3867 9.00781 13.0859 9.00781 12.9219 9.17188L9.39453 12.6992C9.23047 12.8633 9.23047 13.1641 9.39453 13.3281L9.85938 13.793C9.94141 13.875 10.0781 13.9297 10.1875 13.9297C10.2422 13.9297 10.3242 13.9023 10.3789 13.875L11.9922 13L13.6328 14.6406C13.7969 14.8047 14.0703 14.8047 14.2344 14.6406L14.8633 14.0117C15.0273 13.8477 15.0273 13.5742 14.8633 13.4102ZM14.6172 3.32031L14.9727 1.1875C15.0273 0.941406 14.8086 0.722656 14.5625 0.777344L12.4297 1.13281L8.60156 4.96094L10.7891 7.14844L14.6172 3.32031ZM5.18359 8.37891L3.73438 9.82812L3.05078 9.17188C2.88672 9.00781 2.58594 9.00781 2.42188 9.17188L1.95703 9.63672C1.875 9.71875 1.82031 9.85547 1.82031 9.96484C1.82031 10.0195 1.84766 10.1016 1.875 10.1562L2.75 11.7695L1.10938 13.4102C0.945312 13.5742 0.945312 13.8477 1.10938 14.0117L1.73828 14.6406C1.90234 14.8047 2.17578 14.8047 2.33984 14.6406L3.98047 13L5.59375 13.875C5.75781 13.957 5.97656 13.9297 6.11328 13.793L6.57812 13.3281C6.74219 13.1641 6.74219 12.8633 6.57812 12.6992L5.92188 12.0156L7.37109 10.5664L5.18359 8.37891Z" fill="white"/>
</svg>
