<svg width="15" height="13" viewBox="0 0 15 13" fill="none" xmlns="http://www.w3.org/2000/svg">
<path d="M8.34995 7.00001C8.80082 7.00001 9.23322 7.17912 9.55203 7.49793C9.87084 7.81674 10.05 8.24914 10.05 8.70001V9.97501C10.05 11.7209 8.27515 12.95 5.37495 12.95C2.47475 12.95 0.699951 11.7209 0.699951 9.97501V8.70001C0.699951 8.24914 0.879058 7.81674 1.19787 7.49793C1.51668 7.17912 1.94908 7.00001 2.39995 7.00001H8.34995ZM12.6 7.00001C13.0508 7.00001 13.4832 7.17912 13.802 7.49793C14.1208 7.81674 14.3 8.24914 14.3 8.70001V9.12501C14.3 10.9007 12.9672 12.1 10.475 12.1C10.3551 12.1 10.237 12.0975 10.1231 12.0915C10.5812 11.5586 10.8524 10.9134 10.894 10.1782L10.9 9.97501V8.70001C10.9 8.11181 10.7011 7.56951 10.3662 7.13856L10.2497 7.00001H12.6ZM5.37495 0.200012C5.76563 0.200012 6.15249 0.276963 6.51343 0.426471C6.87438 0.575978 7.20234 0.795115 7.47859 1.07137C7.75485 1.34762 7.97399 1.67559 8.12349 2.03653C8.273 2.39747 8.34995 2.78433 8.34995 3.17501C8.34995 3.5657 8.273 3.95255 8.12349 4.3135C7.97399 4.67444 7.75485 5.0024 7.47859 5.27866C7.20234 5.55491 6.87438 5.77405 6.51343 5.92355C6.15249 6.07306 5.76563 6.15001 5.37495 6.15001C4.58593 6.15001 3.82923 5.83658 3.27131 5.27866C2.71339 4.72073 2.39995 3.96403 2.39995 3.17501C2.39995 2.38599 2.71339 1.62929 3.27131 1.07137C3.82923 0.513449 4.58593 0.200012 5.37495 0.200012ZM11.325 1.90001C11.8885 1.90001 12.429 2.1239 12.8276 2.52241C13.2261 2.92093 13.45 3.46143 13.45 4.02501C13.45 4.5886 13.2261 5.1291 12.8276 5.52761C12.429 5.92613 11.8885 6.15001 11.325 6.15001C10.7614 6.15001 10.2209 5.92613 9.82235 5.52761C9.42383 5.1291 9.19995 4.5886 9.19995 4.02501C9.19995 3.46143 9.42383 2.92093 9.82235 2.52241C10.2209 2.1239 10.7614 1.90001 11.325 1.90001Z" fill="#11FF9B"/>
</svg>
