<svg width="20" height="20" viewBox="0 0 20 20" fill="none" xmlns="http://www.w3.org/2000/svg">
<path fill-rule="evenodd" clip-rule="evenodd" d="M2.5 7.99982C2.5 4.96225 4.96243 2.49982 8 2.49982C11.0376 2.49982 13.5 4.96225 13.5 7.99982C13.5 11.0374 11.0376 13.4998 8 13.4998C4.96243 13.4998 2.5 11.0374 2.5 7.99982ZM8 1.49982C4.41015 1.49982 1.5 4.40997 1.5 7.99982C1.5 11.5897 4.41015 14.4998 8 14.4998C9.61501 14.4998 11.0925 13.9108 12.2292 12.9359L17.6467 18.3534L18.3538 17.6463L12.9363 12.2288C13.9111 11.092 14.5 9.6147 14.5 7.99982C14.5 4.40997 11.5899 1.49982 8 1.49982Z" fill="black"/>
</svg>
