<svg width="14" height="12" viewBox="0 0 14 12" fill="none" xmlns="http://www.w3.org/2000/svg">
<path d="M13.7129 6.21484C13.959 5.96875 13.959 5.55859 13.7129 5.28516L9.11914 0.691406C8.68164 0.28125 7.99805 0.582031 7.99805 1.15625V3.78125H4.2793C3.89648 3.78125 3.62305 4.08203 3.62305 4.4375V7.0625C3.62305 7.44531 3.89648 7.71875 4.2793 7.71875H7.99805V10.3438C7.99805 10.9453 8.70898 11.2188 9.11914 10.8086L13.7129 6.21484ZM5.37305 10.6719V9.57812C5.37305 9.41406 5.20898 9.25 5.04492 9.25H2.74805C2.25586 9.25 1.87305 8.86719 1.87305 8.375V3.125C1.87305 2.66016 2.25586 2.25 2.74805 2.25H5.04492C5.20898 2.25 5.37305 2.11328 5.37305 1.92188V0.828125C5.37305 0.664062 5.20898 0.5 5.04492 0.5H2.74805C1.29883 0.5 0.123047 1.67578 0.123047 3.125V8.375C0.123047 9.82422 1.29883 11 2.74805 11H5.04492C5.20898 11 5.37305 10.8633 5.37305 10.6719Z" fill="#FF5A5A"/>
</svg>
