<svg width="32" height="32" viewBox="0 0 32 32" fill="none" xmlns="http://www.w3.org/2000/svg">
<path d="M23.9492 12.4375C24.7305 11.8516 25.4336 11.1484 25.9805 10.3281C25.2773 10.6406 24.457 10.875 23.6367 10.9531C24.4961 10.4453 25.1211 9.66406 25.4336 8.6875C24.6523 9.15625 23.7539 9.50781 22.8555 9.70312C22.0742 8.88281 21.0195 8.41406 19.8477 8.41406C17.582 8.41406 15.7461 10.25 15.7461 12.5156C15.7461 12.8281 15.7852 13.1406 15.8633 13.4531C12.4648 13.2578 9.41797 11.6172 7.38672 9.15625C7.03516 9.74219 6.83984 10.4453 6.83984 11.2266C6.83984 12.6328 7.54297 13.8828 8.67578 14.625C8.01172 14.5859 7.34766 14.4297 6.80078 14.1172V14.1562C6.80078 16.1484 8.20703 17.7891 10.082 18.1797C9.76953 18.2578 9.37891 18.3359 9.02734 18.3359C8.75391 18.3359 8.51953 18.2969 8.24609 18.2578C8.75391 19.8984 10.2773 21.0703 12.0742 21.1094C10.668 22.2031 8.91016 22.8672 6.99609 22.8672C6.64453 22.8672 6.33203 22.8281 6.01953 22.7891C7.81641 23.9609 9.96484 24.625 12.3086 24.625C19.8477 24.625 23.9492 18.4141 23.9492 12.9844C23.9492 12.7891 23.9492 12.6328 23.9492 12.4375Z" fill="white"/>
</svg>
