<svg width="24" height="24" viewBox="0 0 24 24" fill="none" xmlns="http://www.w3.org/2000/svg">
<g filter="url(#filter0_d)">
<path d="M11.3093 1.30202C11.6733 0.899326 12.3267 0.899327 12.6907 1.30202L14.2244 2.99873C14.4463 3.24428 14.7926 3.35178 15.1233 3.27776L17.4079 2.76632C17.9502 2.64493 18.4788 3.01184 18.5255 3.54202L18.7224 5.77592C18.7509 6.0992 18.9649 6.38064 19.2779 6.50642L21.4409 7.3756C21.9543 7.58189 22.1562 8.17555 21.8678 8.63072L20.6527 10.5485C20.4768 10.8261 20.4768 11.1739 20.6527 11.4515L21.8678 13.3693C22.1562 13.8244 21.9543 14.4181 21.4409 14.6244L19.2779 15.4936C18.9649 15.6194 18.7509 15.9008 18.7224 16.2241L18.5255 18.458C18.4788 18.9882 17.9502 19.3551 17.4079 19.2337L15.1233 18.7222C14.7926 18.6482 14.4463 18.7557 14.2244 19.0013L12.6907 20.698C12.3267 21.1007 11.6733 21.1007 11.3093 20.698L9.77563 19.0013C9.55368 18.7557 9.20737 18.6482 8.87673 18.7222L6.59205 19.2337C6.04981 19.3551 5.52121 18.9882 5.47448 18.458L5.27763 16.2241C5.24914 15.9008 5.03511 15.6194 4.72208 15.4936L2.55906 14.6244C2.0457 14.4181 1.84379 13.8244 2.13219 13.3693L3.34734 11.4515C3.5232 11.1739 3.5232 10.8261 3.34734 10.5485L2.13219 8.63072C1.84379 8.17555 2.0457 7.58189 2.55906 7.3756L4.72208 6.50642C5.03511 6.38064 5.24914 6.0992 5.27763 5.77592L5.47448 3.54202C5.52121 3.01184 6.04981 2.64493 6.59205 2.76632L8.87673 3.27776C9.20737 3.35178 9.55368 3.24428 9.77563 2.99873L11.3093 1.30202Z" fill="white"/>
<path d="M11.3093 1.30202C11.6733 0.899326 12.3267 0.899327 12.6907 1.30202L14.2244 2.99873C14.4463 3.24428 14.7926 3.35178 15.1233 3.27776L17.4079 2.76632C17.9502 2.64493 18.4788 3.01184 18.5255 3.54202L18.7224 5.77592C18.7509 6.0992 18.9649 6.38064 19.2779 6.50642L21.4409 7.3756C21.9543 7.58189 22.1562 8.17555 21.8678 8.63072L20.6527 10.5485C20.4768 10.8261 20.4768 11.1739 20.6527 11.4515L21.8678 13.3693C22.1562 13.8244 21.9543 14.4181 21.4409 14.6244L19.2779 15.4936C18.9649 15.6194 18.7509 15.9008 18.7224 16.2241L18.5255 18.458C18.4788 18.9882 17.9502 19.3551 17.4079 19.2337L15.1233 18.7222C14.7926 18.6482 14.4463 18.7557 14.2244 19.0013L12.6907 20.698C12.3267 21.1007 11.6733 21.1007 11.3093 20.698L9.77563 19.0013C9.55368 18.7557 9.20737 18.6482 8.87673 18.7222L6.59205 19.2337C6.04981 19.3551 5.52121 18.9882 5.47448 18.458L5.27763 16.2241C5.24914 15.9008 5.03511 15.6194 4.72208 15.4936L2.55906 14.6244C2.0457 14.4181 1.84379 13.8244 2.13219 13.3693L3.34734 11.4515C3.5232 11.1739 3.5232 10.8261 3.34734 10.5485L2.13219 8.63072C1.84379 8.17555 2.0457 7.58189 2.55906 7.3756L4.72208 6.50642C5.03511 6.38064 5.24914 6.0992 5.27763 5.77592L5.47448 3.54202C5.52121 3.01184 6.04981 2.64493 6.59205 2.76632L8.87673 3.27776C9.20737 3.35178 9.55368 3.24428 9.77563 2.99873L11.3093 1.30202Z" fill="url(#paint0_radial)"/>
</g>
<g filter="url(#filter1_d)">
<path fill-rule="evenodd" clip-rule="evenodd" d="M13.5337 3.56856L12 1.87184L10.4663 3.56856C10.0224 4.05965 9.32981 4.27464 8.66854 4.12661L6.38385 3.61516L6.187 5.84906C6.13002 6.49563 5.70196 7.0585 5.0759 7.31007L2.91289 8.17924L4.12804 10.097C4.47975 10.6521 4.47975 11.3479 4.12804 11.903L2.91288 13.8208L5.0759 14.6899C5.70196 14.9415 6.13002 15.5044 6.187 16.1509L6.38385 18.3848L8.66854 17.8734C9.3298 17.7254 10.0224 17.9404 10.4663 18.4314L12 20.1282L13.5337 18.4314C13.9776 17.9404 14.6702 17.7254 15.3315 17.8734L17.6161 18.3848L17.813 16.1509C17.87 15.5044 18.298 14.9415 18.9241 14.6899L21.0871 13.8208L19.872 11.903C19.5203 11.3479 19.5203 10.6521 19.872 10.097L21.0871 8.17924L18.9241 7.31007C18.298 7.0585 17.87 6.49563 17.813 5.84906L17.6161 3.61516L15.3315 4.12661C14.6702 4.27464 13.9776 4.05965 13.5337 3.56856ZM12.6907 1.30202C12.3267 0.899327 11.6733 0.899326 11.3093 1.30202L9.77563 2.99873C9.55368 3.24428 9.20737 3.35178 8.87673 3.27776L6.59205 2.76632C6.04981 2.64493 5.52121 3.01184 5.47448 3.54202L5.27763 5.77592C5.24914 6.0992 5.03511 6.38064 4.72208 6.50642L2.55906 7.3756C2.0457 7.58189 1.84379 8.17555 2.13219 8.63072L3.34734 10.5485C3.5232 10.8261 3.5232 11.1739 3.34734 11.4515L2.13219 13.3693C1.84379 13.8244 2.0457 14.4181 2.55906 14.6244L4.72208 15.4936C5.03511 15.6194 5.24914 15.9008 5.27763 16.2241L5.47448 18.458C5.52121 18.9882 6.04981 19.3551 6.59205 19.2337L8.87673 18.7222C9.20737 18.6482 9.55368 18.7557 9.77563 19.0013L11.3093 20.698C11.6733 21.1007 12.3267 21.1007 12.6907 20.698L14.2244 19.0013C14.4463 18.7557 14.7926 18.6482 15.1233 18.7222L17.4079 19.2337C17.9502 19.3551 18.4788 18.9882 18.5255 18.458L18.7224 16.2241C18.7509 15.9008 18.9649 15.6194 19.2779 15.4936L21.4409 14.6244C21.9543 14.4181 22.1562 13.8244 21.8678 13.3693L20.6527 11.4515C20.4768 11.1739 20.4768 10.8261 20.6527 10.5485L21.8678 8.63072C22.1562 8.17555 21.9543 7.58189 21.4409 7.3756L19.2779 6.50642C18.9649 6.38064 18.7509 6.0992 18.7224 5.77592L18.5255 3.54202C18.4788 3.01184 17.9502 2.64493 17.4079 2.76632L15.1233 3.27776C14.7926 3.35178 14.4463 3.24428 14.2244 2.99873L12.6907 1.30202Z" fill="black" fill-opacity="0.2" style="mix-blend-mode:overlay"/>
</g>
<g filter="url(#filter2_d)">
<path d="M10.6668 14.6841H13.1503L16.0539 8.36833H13.7073L11.9451 12.3939L10.3015 8.36833H7.9458L10.6668 14.6841Z" fill="white"/>
</g>
<defs>
<filter id="filter0_d" x="0.571429" y="0.285714" width="22.8571" height="22.8571" filterUnits="userSpaceOnUse" color-interpolation-filters="sRGB">
<feFlood flood-opacity="0" result="BackgroundImageFix"/>
<feColorMatrix in="SourceAlpha" type="matrix" values="0 0 0 0 0 0 0 0 0 0 0 0 0 0 0 0 0 0 127 0" result="hardAlpha"/>
<feOffset dy="0.714286"/>
<feGaussianBlur stdDeviation="0.714286"/>
<feColorMatrix type="matrix" values="0 0 0 0 0 0 0 0 0 0 0 0 0 0 0 0 0 0 0.05 0"/>
<feBlend mode="normal" in2="BackgroundImageFix" result="effect1_dropShadow"/>
<feBlend mode="normal" in="SourceGraphic" in2="effect1_dropShadow" result="shape"/>
</filter>
<filter id="filter1_d" x="0.571429" y="0.285714" width="22.8571" height="22.8571" filterUnits="userSpaceOnUse" color-interpolation-filters="sRGB">
<feFlood flood-opacity="0" result="BackgroundImageFix"/>
<feColorMatrix in="SourceAlpha" type="matrix" values="0 0 0 0 0 0 0 0 0 0 0 0 0 0 0 0 0 0 127 0" result="hardAlpha"/>
<feOffset dy="0.714286"/>
<feGaussianBlur stdDeviation="0.714286"/>
<feColorMatrix type="matrix" values="0 0 0 0 0 0 0 0 0 0 0 0 0 0 0 0 0 0 0.05 0"/>
<feBlend mode="normal" in2="BackgroundImageFix" result="effect1_dropShadow"/>
<feBlend mode="normal" in="SourceGraphic" in2="effect1_dropShadow" result="shape"/>
</filter>
<filter id="filter2_d" x="6.51723" y="7.65405" width="10.9653" height="9.17294" filterUnits="userSpaceOnUse" color-interpolation-filters="sRGB">
<feFlood flood-opacity="0" result="BackgroundImageFix"/>
<feColorMatrix in="SourceAlpha" type="matrix" values="0 0 0 0 0 0 0 0 0 0 0 0 0 0 0 0 0 0 127 0" result="hardAlpha"/>
<feOffset dy="0.714286"/>
<feGaussianBlur stdDeviation="0.714286"/>
<feColorMatrix type="matrix" values="0 0 0 0 0 0 0 0 0 0 0 0 0 0 0 0 0 0 0.05 0"/>
<feBlend mode="normal" in2="BackgroundImageFix" result="effect1_dropShadow"/>
<feBlend mode="normal" in="SourceGraphic" in2="effect1_dropShadow" result="shape"/>
</filter>
<radialGradient id="paint0_radial" cx="0" cy="0" r="1" gradientUnits="userSpaceOnUse" gradientTransform="translate(11.9992 21.4623) rotate(-90) scale(20.9242 21.7502)">
<stop stop-color="#E39A0A"/>
<stop offset="0.508563" stop-color="#FFE895"/>
<stop offset="1" stop-color="#E7BC25"/>
</radialGradient>
</defs>
</svg>
