<svg width="150" height="72" viewBox="0 0 150 72" fill="none" xmlns="http://www.w3.org/2000/svg">
<g filter="url(#filter0_d)">
<mask id="path-1-outside-1" maskUnits="userSpaceOnUse" x="20.0005" y="20.1114" width="110" height="32" fill="black">
<rect fill="white" x="20.0005" y="20.1114" width="110" height="32"/>
<path fill-rule="evenodd" clip-rule="evenodd" d="M35.5231 21.1114C35.5137 21.1114 35.5061 21.119 35.5061 21.1284V34.4669V34.4801C35.5061 34.4895 35.5137 34.4971 35.5231 34.4971H48.0793C48.0887 34.4971 48.0963 34.4895 48.0963 34.4801V31.6023C48.0963 31.5985 48.095 31.5947 48.0926 31.5917L45.0629 27.7998C45.0579 27.7936 45.0579 27.7847 45.0629 27.7785L48.0925 24.0168C48.095 24.0138 48.0963 24.01 48.0963 24.0061V21.1284C48.0963 21.119 48.0887 21.1114 48.0793 21.1114H35.5231ZM44.469 31.5688C44.4779 31.5799 44.47 31.5964 44.4557 31.5964H38.1989C38.1895 31.5964 38.1819 31.5888 38.1819 31.5794V24.0291C38.1819 24.0197 38.1895 24.0121 38.1989 24.0121H44.4555C44.4698 24.0121 44.4777 24.0287 44.4688 24.0398L41.4577 27.7785C41.4527 27.7847 41.4527 27.7936 41.4576 27.7998L44.469 31.5688ZM53.2224 25.5717C53.2224 25.5556 53.2427 25.5485 53.2527 25.5611L60.3151 34.4605C60.3183 34.4645 60.3232 34.4669 60.3284 34.4669H63.89C63.9043 34.4669 63.9122 34.4504 63.9033 34.4393L53.2275 21.1178C53.2242 21.1137 53.2194 21.1114 53.2142 21.1114H50.5354C50.526 21.1114 50.5184 21.119 50.5184 21.1284V34.4499C50.5184 34.4593 50.526 34.4669 50.5354 34.4669H53.2054C53.2148 34.4669 53.2224 34.4593 53.2224 34.4499V25.5717ZM65.8015 34.4669C65.7921 34.4669 65.7845 34.4593 65.7845 34.4499V24.0291C65.7845 24.0197 65.7769 24.0121 65.7675 24.0121H60.0468C60.0416 24.0121 60.0367 24.0098 60.0335 24.0057L57.751 21.139C57.7421 21.1278 57.75 21.1114 57.7642 21.1114H72.5441H72.6006H86.2818C86.296 21.1114 86.3039 21.1279 86.295 21.139L83.9846 24.0058C83.9814 24.0098 83.9765 24.0121 83.9714 24.0121H79.5181C79.5087 24.0121 79.5011 24.0197 79.5011 24.0291V34.4499C79.5011 34.4593 79.4935 34.4669 79.4841 34.4669H76.8142C76.8048 34.4669 76.7972 34.4593 76.7972 34.4499V24.0291C76.7972 24.0197 76.7896 24.0121 76.7802 24.0121H72.6006H72.5441H68.4772C68.4678 24.0121 68.4602 24.0197 68.4602 24.0291V34.4499C68.4602 34.4593 68.4526 34.4669 68.4432 34.4669H65.8015ZM86.3343 34.4669C86.3249 34.4669 86.3173 34.4593 86.3173 34.4499V24.5317C86.3173 24.5279 86.3186 24.5242 86.3209 24.5212L88.9909 21.1497C89.0009 21.137 89.0212 21.1441 89.0212 21.1602V31.5794C89.0212 31.5888 89.0288 31.5964 89.0382 31.5964H98.6933C98.7027 31.5964 98.7103 31.604 98.7103 31.6134V34.4499C98.7103 34.4593 98.7027 34.4669 98.6933 34.4669H86.3343ZM101.178 31.5661C101.168 31.5661 101.161 31.5738 101.161 31.5831V34.4499C101.161 34.4593 101.168 34.4669 101.178 34.4669H111.94C111.945 34.4669 111.95 34.4645 111.953 34.4605L114.236 31.5937C114.245 31.5826 114.237 31.5661 114.223 31.5661H101.178ZM101.178 26.3388C101.168 26.3388 101.161 26.3464 101.161 26.3558V29.2225C101.161 29.2319 101.168 29.2395 101.178 29.2395H111.94C111.945 29.2395 111.95 29.2372 111.953 29.2331L114.236 26.3663C114.245 26.3552 114.237 26.3388 114.223 26.3388H101.178ZM101.178 21.1114C101.168 21.1114 101.161 21.119 101.161 21.1284V23.9951C101.161 24.0045 101.168 24.0121 101.178 24.0121H111.94C111.945 24.0121 111.95 24.0098 111.953 24.0057L114.236 21.139C114.245 21.1278 114.237 21.1114 114.223 21.1114H101.178ZM24.1069 50.9044C24.1017 50.9044 24.0969 50.9021 24.0936 50.8981L21.0042 47.0414C21.0018 47.0384 21.0005 47.0347 21.0005 47.0308V37.5357C21.0005 37.5263 21.0081 37.5187 21.0175 37.5187H23.6874C23.6968 37.5187 23.7044 37.5263 23.7044 37.5357V45.9128C23.7044 45.9167 23.7057 45.9204 23.7081 45.9234L25.3611 47.9973C25.3643 48.0013 25.3692 48.0037 25.3744 48.0037H30.7571C30.7665 48.0037 30.7741 47.9961 30.7741 47.9867V37.5357C30.7741 37.5263 30.7817 37.5187 30.7911 37.5187H33.4328C33.4422 37.5187 33.4498 37.5263 33.4498 37.5357V50.8875C33.4498 50.8968 33.4422 50.9044 33.4328 50.9044H24.1069ZM38.1649 50.9044C38.1743 50.9044 38.1819 50.8968 38.1819 50.8875V42.0692C38.1819 42.0532 38.2021 42.0461 38.2121 42.0586L45.3028 50.8981C45.306 50.9021 45.3109 50.9044 45.316 50.9044H48.0793C48.0887 50.9044 48.0963 50.8968 48.0963 50.8875V37.5357C48.0963 37.5263 48.0887 37.5187 48.0793 37.5187H45.4375C45.4281 37.5187 45.4205 37.5263 45.4205 37.5357V46.4749C45.4205 46.4909 45.4003 46.498 45.3903 46.4855L38.187 37.5251C38.1837 37.5211 38.1789 37.5187 38.1737 37.5187H35.5231C35.5137 37.5187 35.5061 37.5263 35.5061 37.5357V50.8875C35.5061 50.8968 35.5137 50.9044 35.5231 50.9044H38.1649ZM50.5184 37.5357C50.5184 37.5263 50.526 37.5187 50.5354 37.5187H53.2054C53.2148 37.5187 53.2224 37.5263 53.2224 37.5357V51.098C53.2224 51.1077 53.2142 51.1155 53.2044 51.115L50.5345 50.9658C50.5255 50.9653 50.5184 50.9578 50.5184 50.9488V37.5357ZM58.6634 37.5251C58.6602 37.5211 58.6553 37.5187 58.6502 37.5187H55.0885C55.0742 37.5187 55.0663 37.5352 55.0752 37.5463L65.7792 50.8981C65.7824 50.9021 65.7873 50.9044 65.7925 50.9044H68.4431C68.4525 50.9044 68.4601 50.8968 68.4601 50.8875V37.5357C68.4601 37.5263 68.4525 37.5187 68.4431 37.5187H65.8013C65.7919 37.5187 65.7843 37.5263 65.7843 37.5357V46.3539C65.7843 46.37 65.7641 46.3771 65.7541 46.3645L58.6634 37.5251ZM71.4347 50.9044C71.4253 50.9044 71.4177 50.8968 71.4177 50.8875V48.0207C71.4177 48.0113 71.4253 48.0037 71.4347 48.0037H84.4796C84.4939 48.0037 84.5018 48.0201 84.4929 48.0313L82.2104 50.898C82.2071 50.9021 82.2023 50.9044 82.1971 50.9044H71.4347ZM71.4347 45.6468C71.4253 45.6468 71.4177 45.6392 71.4177 45.6299V42.7631C71.4177 42.7537 71.4253 42.7461 71.4347 42.7461H84.4796C84.4939 42.7461 84.5018 42.7625 84.4929 42.7737L82.2104 45.6404C82.2071 45.6445 82.2023 45.6468 82.1971 45.6468H71.4347ZM71.4347 40.4195C71.4253 40.4195 71.4177 40.4119 71.4177 40.4025V37.5357C71.4177 37.5263 71.4253 37.5187 71.4347 37.5187H84.4796C84.4939 37.5187 84.5018 37.5352 84.4929 37.5463L82.2104 40.4131C82.2071 40.4171 82.2023 40.4195 82.1971 40.4195H71.4347ZM95.0978 40.4195C95.112 40.4195 95.1199 40.436 95.111 40.4471L91.283 45.2132C91.278 45.2194 91.278 45.2282 91.283 45.2345L95.8041 50.8981C95.8073 50.9021 95.8122 50.9044 95.8174 50.9044H99.379C99.3932 50.9044 99.4012 50.8879 99.3922 50.8768L94.8601 45.2345C94.8551 45.2282 94.8551 45.2194 94.8601 45.2132L98.7065 40.4241C98.709 40.4211 98.7103 40.4174 98.7103 40.4135V37.5357C98.7103 37.5263 98.7027 37.5187 98.6933 37.5187H86.2779C86.2685 37.5187 86.2609 37.5263 86.2609 37.5357V50.8875C86.2609 50.8968 86.2685 50.9044 86.2779 50.9044H88.9479C88.9573 50.9044 88.9649 50.8968 88.9649 50.8875V40.4365C88.9649 40.4271 88.9725 40.4195 88.9818 40.4195H95.0978ZM101.093 50.9044C101.084 50.9044 101.076 50.8968 101.076 50.8875V48.0207C101.076 48.0113 101.084 48.0037 101.093 48.0037H109.18C109.185 48.0037 109.19 48.0013 109.193 47.9972L111.025 45.6744C111.034 45.6632 111.026 45.6468 111.012 45.6468H101.093C101.084 45.6468 101.076 45.6392 101.076 45.6299V41.3923C101.076 41.3885 101.077 41.3847 101.08 41.3817L104.169 37.5251C104.173 37.5211 104.177 37.5187 104.183 37.5187H113.537C113.546 37.5187 113.554 37.5263 113.554 37.5357V40.4025C113.554 40.4119 113.546 40.4195 113.537 40.4195H105.478C105.473 40.4195 105.468 40.4218 105.465 40.4258L103.605 42.7487C103.596 42.7598 103.604 42.7763 103.618 42.7763H113.537C113.546 42.7763 113.554 42.7839 113.554 42.7933V47.0308C113.554 47.0347 113.552 47.0384 113.55 47.0414L110.461 50.8981C110.457 50.9021 110.452 50.9044 110.447 50.9044H101.093ZM115.937 48.0037C115.927 48.0037 115.92 48.0113 115.92 48.0207V50.8875C115.92 50.8968 115.927 50.9044 115.937 50.9044H126.699C126.704 50.9044 126.709 50.9021 126.712 50.898L128.995 48.0313C129.004 48.0201 128.996 48.0037 128.982 48.0037H115.937ZM115.937 42.7461C115.927 42.7461 115.92 42.7537 115.92 42.7631V45.6299C115.92 45.6392 115.927 45.6468 115.937 45.6468H126.699C126.704 45.6468 126.709 45.6445 126.712 45.6404L128.995 42.7737C129.004 42.7625 128.996 42.7461 128.982 42.7461H115.937ZM115.937 37.5187C115.927 37.5187 115.92 37.5263 115.92 37.5357V40.4025C115.92 40.4119 115.927 40.4195 115.937 40.4195H126.699C126.704 40.4195 126.709 40.4171 126.712 40.4131L128.995 37.5463C129.004 37.5352 128.996 37.5187 128.982 37.5187H115.937Z"/>
</mask>
<path fill-rule="evenodd" clip-rule="evenodd" d="M35.5231 21.1114C35.5137 21.1114 35.5061 21.119 35.5061 21.1284V34.4669V34.4801C35.5061 34.4895 35.5137 34.4971 35.5231 34.4971H48.0793C48.0887 34.4971 48.0963 34.4895 48.0963 34.4801V31.6023C48.0963 31.5985 48.095 31.5947 48.0926 31.5917L45.0629 27.7998C45.0579 27.7936 45.0579 27.7847 45.0629 27.7785L48.0925 24.0168C48.095 24.0138 48.0963 24.01 48.0963 24.0061V21.1284C48.0963 21.119 48.0887 21.1114 48.0793 21.1114H35.5231ZM44.469 31.5688C44.4779 31.5799 44.47 31.5964 44.4557 31.5964H38.1989C38.1895 31.5964 38.1819 31.5888 38.1819 31.5794V24.0291C38.1819 24.0197 38.1895 24.0121 38.1989 24.0121H44.4555C44.4698 24.0121 44.4777 24.0287 44.4688 24.0398L41.4577 27.7785C41.4527 27.7847 41.4527 27.7936 41.4576 27.7998L44.469 31.5688ZM53.2224 25.5717C53.2224 25.5556 53.2427 25.5485 53.2527 25.5611L60.3151 34.4605C60.3183 34.4645 60.3232 34.4669 60.3284 34.4669H63.89C63.9043 34.4669 63.9122 34.4504 63.9033 34.4393L53.2275 21.1178C53.2242 21.1137 53.2194 21.1114 53.2142 21.1114H50.5354C50.526 21.1114 50.5184 21.119 50.5184 21.1284V34.4499C50.5184 34.4593 50.526 34.4669 50.5354 34.4669H53.2054C53.2148 34.4669 53.2224 34.4593 53.2224 34.4499V25.5717ZM65.8015 34.4669C65.7921 34.4669 65.7845 34.4593 65.7845 34.4499V24.0291C65.7845 24.0197 65.7769 24.0121 65.7675 24.0121H60.0468C60.0416 24.0121 60.0367 24.0098 60.0335 24.0057L57.751 21.139C57.7421 21.1278 57.75 21.1114 57.7642 21.1114H72.5441H72.6006H86.2818C86.296 21.1114 86.3039 21.1279 86.295 21.139L83.9846 24.0058C83.9814 24.0098 83.9765 24.0121 83.9714 24.0121H79.5181C79.5087 24.0121 79.5011 24.0197 79.5011 24.0291V34.4499C79.5011 34.4593 79.4935 34.4669 79.4841 34.4669H76.8142C76.8048 34.4669 76.7972 34.4593 76.7972 34.4499V24.0291C76.7972 24.0197 76.7896 24.0121 76.7802 24.0121H72.6006H72.5441H68.4772C68.4678 24.0121 68.4602 24.0197 68.4602 24.0291V34.4499C68.4602 34.4593 68.4526 34.4669 68.4432 34.4669H65.8015ZM86.3343 34.4669C86.3249 34.4669 86.3173 34.4593 86.3173 34.4499V24.5317C86.3173 24.5279 86.3186 24.5242 86.3209 24.5212L88.9909 21.1497C89.0009 21.137 89.0212 21.1441 89.0212 21.1602V31.5794C89.0212 31.5888 89.0288 31.5964 89.0382 31.5964H98.6933C98.7027 31.5964 98.7103 31.604 98.7103 31.6134V34.4499C98.7103 34.4593 98.7027 34.4669 98.6933 34.4669H86.3343ZM101.178 31.5661C101.168 31.5661 101.161 31.5738 101.161 31.5831V34.4499C101.161 34.4593 101.168 34.4669 101.178 34.4669H111.94C111.945 34.4669 111.95 34.4645 111.953 34.4605L114.236 31.5937C114.245 31.5826 114.237 31.5661 114.223 31.5661H101.178ZM101.178 26.3388C101.168 26.3388 101.161 26.3464 101.161 26.3558V29.2225C101.161 29.2319 101.168 29.2395 101.178 29.2395H111.94C111.945 29.2395 111.95 29.2372 111.953 29.2331L114.236 26.3663C114.245 26.3552 114.237 26.3388 114.223 26.3388H101.178ZM101.178 21.1114C101.168 21.1114 101.161 21.119 101.161 21.1284V23.9951C101.161 24.0045 101.168 24.0121 101.178 24.0121H111.94C111.945 24.0121 111.95 24.0098 111.953 24.0057L114.236 21.139C114.245 21.1278 114.237 21.1114 114.223 21.1114H101.178ZM24.1069 50.9044C24.1017 50.9044 24.0969 50.9021 24.0936 50.8981L21.0042 47.0414C21.0018 47.0384 21.0005 47.0347 21.0005 47.0308V37.5357C21.0005 37.5263 21.0081 37.5187 21.0175 37.5187H23.6874C23.6968 37.5187 23.7044 37.5263 23.7044 37.5357V45.9128C23.7044 45.9167 23.7057 45.9204 23.7081 45.9234L25.3611 47.9973C25.3643 48.0013 25.3692 48.0037 25.3744 48.0037H30.7571C30.7665 48.0037 30.7741 47.9961 30.7741 47.9867V37.5357C30.7741 37.5263 30.7817 37.5187 30.7911 37.5187H33.4328C33.4422 37.5187 33.4498 37.5263 33.4498 37.5357V50.8875C33.4498 50.8968 33.4422 50.9044 33.4328 50.9044H24.1069ZM38.1649 50.9044C38.1743 50.9044 38.1819 50.8968 38.1819 50.8875V42.0692C38.1819 42.0532 38.2021 42.0461 38.2121 42.0586L45.3028 50.8981C45.306 50.9021 45.3109 50.9044 45.316 50.9044H48.0793C48.0887 50.9044 48.0963 50.8968 48.0963 50.8875V37.5357C48.0963 37.5263 48.0887 37.5187 48.0793 37.5187H45.4375C45.4281 37.5187 45.4205 37.5263 45.4205 37.5357V46.4749C45.4205 46.4909 45.4003 46.498 45.3903 46.4855L38.187 37.5251C38.1837 37.5211 38.1789 37.5187 38.1737 37.5187H35.5231C35.5137 37.5187 35.5061 37.5263 35.5061 37.5357V50.8875C35.5061 50.8968 35.5137 50.9044 35.5231 50.9044H38.1649ZM50.5184 37.5357C50.5184 37.5263 50.526 37.5187 50.5354 37.5187H53.2054C53.2148 37.5187 53.2224 37.5263 53.2224 37.5357V51.098C53.2224 51.1077 53.2142 51.1155 53.2044 51.115L50.5345 50.9658C50.5255 50.9653 50.5184 50.9578 50.5184 50.9488V37.5357ZM58.6634 37.5251C58.6602 37.5211 58.6553 37.5187 58.6502 37.5187H55.0885C55.0742 37.5187 55.0663 37.5352 55.0752 37.5463L65.7792 50.8981C65.7824 50.9021 65.7873 50.9044 65.7925 50.9044H68.4431C68.4525 50.9044 68.4601 50.8968 68.4601 50.8875V37.5357C68.4601 37.5263 68.4525 37.5187 68.4431 37.5187H65.8013C65.7919 37.5187 65.7843 37.5263 65.7843 37.5357V46.3539C65.7843 46.37 65.7641 46.3771 65.7541 46.3645L58.6634 37.5251ZM71.4347 50.9044C71.4253 50.9044 71.4177 50.8968 71.4177 50.8875V48.0207C71.4177 48.0113 71.4253 48.0037 71.4347 48.0037H84.4796C84.4939 48.0037 84.5018 48.0201 84.4929 48.0313L82.2104 50.898C82.2071 50.9021 82.2023 50.9044 82.1971 50.9044H71.4347ZM71.4347 45.6468C71.4253 45.6468 71.4177 45.6392 71.4177 45.6299V42.7631C71.4177 42.7537 71.4253 42.7461 71.4347 42.7461H84.4796C84.4939 42.7461 84.5018 42.7625 84.4929 42.7737L82.2104 45.6404C82.2071 45.6445 82.2023 45.6468 82.1971 45.6468H71.4347ZM71.4347 40.4195C71.4253 40.4195 71.4177 40.4119 71.4177 40.4025V37.5357C71.4177 37.5263 71.4253 37.5187 71.4347 37.5187H84.4796C84.4939 37.5187 84.5018 37.5352 84.4929 37.5463L82.2104 40.4131C82.2071 40.4171 82.2023 40.4195 82.1971 40.4195H71.4347ZM95.0978 40.4195C95.112 40.4195 95.1199 40.436 95.111 40.4471L91.283 45.2132C91.278 45.2194 91.278 45.2282 91.283 45.2345L95.8041 50.8981C95.8073 50.9021 95.8122 50.9044 95.8174 50.9044H99.379C99.3932 50.9044 99.4012 50.8879 99.3922 50.8768L94.8601 45.2345C94.8551 45.2282 94.8551 45.2194 94.8601 45.2132L98.7065 40.4241C98.709 40.4211 98.7103 40.4174 98.7103 40.4135V37.5357C98.7103 37.5263 98.7027 37.5187 98.6933 37.5187H86.2779C86.2685 37.5187 86.2609 37.5263 86.2609 37.5357V50.8875C86.2609 50.8968 86.2685 50.9044 86.2779 50.9044H88.9479C88.9573 50.9044 88.9649 50.8968 88.9649 50.8875V40.4365C88.9649 40.4271 88.9725 40.4195 88.9818 40.4195H95.0978ZM101.093 50.9044C101.084 50.9044 101.076 50.8968 101.076 50.8875V48.0207C101.076 48.0113 101.084 48.0037 101.093 48.0037H109.18C109.185 48.0037 109.19 48.0013 109.193 47.9972L111.025 45.6744C111.034 45.6632 111.026 45.6468 111.012 45.6468H101.093C101.084 45.6468 101.076 45.6392 101.076 45.6299V41.3923C101.076 41.3885 101.077 41.3847 101.08 41.3817L104.169 37.5251C104.173 37.5211 104.177 37.5187 104.183 37.5187H113.537C113.546 37.5187 113.554 37.5263 113.554 37.5357V40.4025C113.554 40.4119 113.546 40.4195 113.537 40.4195H105.478C105.473 40.4195 105.468 40.4218 105.465 40.4258L103.605 42.7487C103.596 42.7598 103.604 42.7763 103.618 42.7763H113.537C113.546 42.7763 113.554 42.7839 113.554 42.7933V47.0308C113.554 47.0347 113.552 47.0384 113.55 47.0414L110.461 50.8981C110.457 50.9021 110.452 50.9044 110.447 50.9044H101.093ZM115.937 48.0037C115.927 48.0037 115.92 48.0113 115.92 48.0207V50.8875C115.92 50.8968 115.927 50.9044 115.937 50.9044H126.699C126.704 50.9044 126.709 50.9021 126.712 50.898L128.995 48.0313C129.004 48.0201 128.996 48.0037 128.982 48.0037H115.937ZM115.937 42.7461C115.927 42.7461 115.92 42.7537 115.92 42.7631V45.6299C115.92 45.6392 115.927 45.6468 115.937 45.6468H126.699C126.704 45.6468 126.709 45.6445 126.712 45.6404L128.995 42.7737C129.004 42.7625 128.996 42.7461 128.982 42.7461H115.937ZM115.937 37.5187C115.927 37.5187 115.92 37.5263 115.92 37.5357V40.4025C115.92 40.4119 115.927 40.4195 115.937 40.4195H126.699C126.704 40.4195 126.709 40.4171 126.712 40.4131L128.995 37.5463C129.004 37.5352 128.996 37.5187 128.982 37.5187H115.937Z" fill="white"/>
<path d="M128.995 37.5463L129.128 37.6521L128.995 37.5463ZM126.712 40.4131L126.58 40.3072L126.712 40.4131ZM128.995 42.7737L129.128 42.8795L128.995 42.7737ZM126.712 45.6404L126.58 45.5346L126.712 45.6404ZM128.995 48.0313L129.128 48.1371L128.995 48.0313ZM126.712 50.898L126.58 50.7922L126.712 50.898ZM110.461 50.8981L110.328 50.7919L110.461 50.8981ZM113.55 47.0414L113.683 47.1477L113.55 47.0414ZM103.605 42.7487L103.472 42.6425L103.605 42.7487ZM105.465 40.4258L105.332 40.3197L105.465 40.4258ZM104.169 37.5251L104.302 37.6313L104.169 37.5251ZM101.08 41.3817L100.947 41.2755L101.08 41.3817ZM111.025 45.6744L111.159 45.7796L111.025 45.6744ZM109.193 47.9972L109.06 47.892L109.193 47.9972ZM98.7065 40.4241L98.839 40.5305L98.7065 40.4241ZM91.283 45.2132L91.4154 45.3196L91.283 45.2132ZM91.283 45.2345L91.1502 45.3404L91.283 45.2345ZM82.2104 40.4131L82.3433 40.5189L82.2104 40.4131ZM84.4929 37.5463L84.36 37.4405L84.4929 37.5463ZM82.2104 45.6404L82.3433 45.7463L82.2104 45.6404ZM84.4929 42.7737L84.6258 42.8795L84.4929 42.7737ZM82.2104 50.898L82.3433 51.0039L82.2104 50.898ZM84.4929 48.0313L84.36 47.9255L84.4929 48.0313ZM65.7541 46.3645L65.8866 46.2583L65.7541 46.3645ZM65.7792 50.8981L65.9118 50.7918L65.7792 50.8981ZM58.6634 37.5251L58.5309 37.6314L58.6634 37.5251ZM55.0752 37.5463L55.2078 37.4401L55.0752 37.5463ZM50.5345 50.9658L50.525 51.1354L50.5345 50.9658ZM53.2044 51.115L53.2139 50.9453L53.2044 51.115ZM38.187 37.5251L38.3194 37.4186L38.187 37.5251ZM45.3903 46.4855L45.5227 46.3791L45.3903 46.4855ZM45.3028 50.8981L45.1702 51.0044L45.3028 50.8981ZM38.2121 42.0586L38.0796 42.1649L38.2121 42.0586ZM25.3611 47.9973L25.494 47.8914L25.3611 47.9973ZM23.7081 45.9234L23.5753 46.0293L23.7081 45.9234ZM24.0936 50.8981L23.9611 51.0043L24.0936 50.8981ZM21.0042 47.0414L20.8716 47.1477L21.0042 47.0414ZM114.236 21.139L114.369 21.2448L114.236 21.139ZM111.953 24.0057L112.086 24.1115L111.953 24.0057ZM114.236 31.5937L114.369 31.6995L114.236 31.5937ZM111.953 34.4605L111.82 34.3547L111.953 34.4605ZM88.9909 21.1497L89.1241 21.2551L88.9909 21.1497ZM86.3209 24.5212L86.1878 24.4157L86.3209 24.5212ZM83.9846 24.0058L84.1169 24.1124L83.9846 24.0058ZM86.295 21.139L86.4273 21.2456L86.295 21.139ZM57.751 21.139L57.8839 21.0331L57.751 21.139ZM60.0335 24.0057L59.9006 24.1115L60.0335 24.0057ZM53.2275 21.1178L53.0949 21.224L53.2275 21.1178ZM63.9033 34.4393L64.0359 34.333L63.9033 34.4393ZM53.2527 25.5611L53.1196 25.6667L53.2527 25.5611ZM60.3151 34.4605L60.4482 34.3549L60.3151 34.4605ZM41.4577 27.7785L41.59 27.8851L41.4577 27.7785ZM41.4576 27.7998L41.3249 27.9058L41.4576 27.7998ZM44.4688 24.0398L44.6011 24.1463L44.4688 24.0398ZM44.469 31.5688L44.6017 31.4627L44.469 31.5688ZM48.0925 24.0168L48.2248 24.1234L48.0925 24.0168ZM45.0629 27.7998L45.1956 27.6937L45.0629 27.7998ZM45.0629 27.7785L45.1952 27.8851L45.0629 27.7785ZM94.8601 45.2345L94.7276 45.3408L94.8601 45.2345ZM94.8601 45.2132L94.7276 45.1068L94.8601 45.2132ZM48.0926 31.5917L48.2253 31.4857L48.0926 31.5917ZM99.3922 50.8768L99.2598 50.9832L99.3922 50.8768ZM114.236 26.3663L114.369 26.4722L114.236 26.3663ZM95.8041 50.8981L95.6713 51.004L95.8041 50.8981ZM111.953 29.2331L112.086 29.3389L111.953 29.2331ZM95.111 40.4471L94.9786 40.3407L95.111 40.4471ZM35.676 34.4669V21.1284H35.3362V34.4669H35.676ZM35.676 34.4801V34.4669H35.3362V34.4801H35.676ZM48.0793 34.3272H35.5231V34.667H48.0793V34.3272ZM47.9264 31.6023V34.4801H48.2662V31.6023H47.9264ZM44.9301 27.9058L47.9598 31.6978L48.2253 31.4857L45.1956 27.6937L44.9301 27.9058ZM47.9602 23.9102L44.9306 27.672L45.1952 27.8851L48.2248 24.1234L47.9602 23.9102ZM47.9264 21.1284V24.0061H48.2662V21.1284H47.9264ZM35.5231 21.2813H48.0793V20.9415H35.5231V21.2813ZM38.1989 31.7662H44.4557V31.4265H38.1989V31.7662ZM38.012 24.0291V31.5794H38.3518V24.0291H38.012ZM44.4555 23.8422H38.1989V24.182H44.4555V23.8422ZM41.59 27.8851L44.6011 24.1463L44.3365 23.9332L41.3254 27.672L41.59 27.8851ZM44.6017 31.4627L41.5903 27.6937L41.3249 27.9058L44.3363 31.6748L44.6017 31.4627ZM60.4482 34.3549L53.3857 25.4555L53.1196 25.6667L60.182 34.5661L60.4482 34.3549ZM63.89 34.297H60.3284V34.6368H63.89V34.297ZM53.0949 21.224L63.7707 34.5455L64.0359 34.333L53.36 21.0115L53.0949 21.224ZM50.5354 21.2813H53.2142V20.9415H50.5354V21.2813ZM50.6883 34.4499V21.1284H50.3485V34.4499H50.6883ZM53.2054 34.297H50.5354V34.6368H53.2054V34.297ZM53.0525 25.5717V34.4499H53.3922V25.5717H53.0525ZM65.6146 24.0291V34.4499H65.9543V24.0291H65.6146ZM60.0468 24.182H65.7675V23.8422H60.0468V24.182ZM57.6181 21.2448L59.9006 24.1115L60.1664 23.8999L57.8839 21.0331L57.6181 21.2448ZM72.5441 20.9415H57.7642V21.2813H72.5441V20.9415ZM72.6006 20.9415H72.5441V21.2813H72.6006V20.9415ZM86.2818 20.9415H72.6006V21.2813H86.2818V20.9415ZM84.1169 24.1124L86.4273 21.2456L86.1627 21.0324L83.8523 23.8992L84.1169 24.1124ZM79.5181 24.182H83.9714V23.8422H79.5181V24.182ZM79.671 34.4499V24.0291H79.3312V34.4499H79.671ZM76.8142 34.6368H79.4841V34.297H76.8142V34.6368ZM76.6273 24.0291V34.4499H76.9671V24.0291H76.6273ZM72.6006 24.182H76.7802V23.8422H72.6006V24.182ZM72.5441 24.182H72.6006V23.8422H72.5441V24.182ZM68.4772 24.182H72.5441V23.8422H68.4772V24.182ZM68.6301 34.4499V24.0291H68.2903V34.4499H68.6301ZM65.8015 34.6368H68.4432V34.297H65.8015V34.6368ZM86.1474 24.5317V34.4499H86.4871V24.5317H86.1474ZM88.8577 21.0442L86.1878 24.4157L86.4541 24.6266L89.1241 21.2551L88.8577 21.0442ZM89.1911 31.5794V21.1602H88.8513V31.5794H89.1911ZM98.6933 31.4265H89.0382V31.7662H98.6933V31.4265ZM98.8802 34.4499V31.6134H98.5404V34.4499H98.8802ZM86.3343 34.6368H98.6933V34.297H86.3343V34.6368ZM101.331 34.4499V31.5831H100.991V34.4499H101.331ZM111.94 34.297H101.178V34.6368H111.94V34.297ZM114.103 31.4879L111.82 34.3547L112.086 34.5663L114.369 31.6995L114.103 31.4879ZM101.178 31.736H114.223V31.3963H101.178V31.736ZM101.331 29.2225V26.3558H100.991V29.2225H101.331ZM111.94 29.0696H101.178V29.4094H111.94V29.0696ZM114.103 26.2605L111.82 29.1273L112.086 29.3389L114.369 26.4722L114.103 26.2605ZM101.178 26.5087H114.223V26.1689H101.178V26.5087ZM101.331 23.9951V21.1284H100.991V23.9951H101.331ZM111.94 23.8422H101.178V24.182H111.94V23.8422ZM114.103 21.0331L111.82 23.8999L112.086 24.1115L114.369 21.2448L114.103 21.0331ZM101.178 21.2813H114.223V20.9415H101.178V21.2813ZM20.8716 47.1477L23.9611 51.0043L24.2262 50.7919L21.1368 46.9352L20.8716 47.1477ZM20.8306 37.5357V47.0308H21.1704V37.5357H20.8306ZM23.6874 37.3488H21.0175V37.6886H23.6874V37.3488ZM23.8743 45.9128V37.5357H23.5345V45.9128H23.8743ZM25.494 47.8914L23.841 45.8176L23.5753 46.0293L25.2283 48.1032L25.494 47.8914ZM30.7571 47.8338H25.3744V48.1736H30.7571V47.8338ZM30.6042 37.5357V47.9867H30.944V37.5357H30.6042ZM33.4328 37.3488H30.7911V37.6886H33.4328V37.3488ZM33.6197 50.8875V37.5357H33.28V50.8875H33.6197ZM24.1069 51.0743H33.4328V50.7346H24.1069V51.0743ZM38.012 42.0692V50.8875H38.3518V42.0692H38.012ZM45.4353 50.7918L38.3446 41.9523L38.0796 42.1649L45.1702 51.0044L45.4353 50.7918ZM48.0793 50.7346H45.316V51.0743H48.0793V50.7346ZM47.9264 37.5357V50.8875H48.2662V37.5357H47.9264ZM45.4375 37.6886H48.0793V37.3488H45.4375V37.6886ZM45.5904 46.4749V37.5357H45.2506V46.4749H45.5904ZM38.0546 37.6315L45.2579 46.592L45.5227 46.3791L38.3194 37.4186L38.0546 37.6315ZM35.5231 37.6886H38.1737V37.3488H35.5231V37.6886ZM35.676 50.8875V37.5357H35.3362V50.8875H35.676ZM38.1649 50.7346H35.5231V51.0743H38.1649V50.7346ZM53.2054 37.3488H50.5354V37.6886H53.2054V37.3488ZM53.3922 51.098V37.5357H53.0525V51.098H53.3922ZM50.525 51.1354L53.1949 51.2846L53.2139 50.9453L50.544 50.7962L50.525 51.1354ZM50.3485 37.5357V50.9488H50.6883V37.5357H50.3485ZM55.0885 37.6886H58.6502V37.3488H55.0885V37.6886ZM65.9118 50.7918L55.2078 37.4401L54.9427 37.6526L65.6467 51.0043L65.9118 50.7918ZM68.4431 50.7346H65.7925V51.0743H68.4431V50.7346ZM68.2902 37.5357V50.8875H68.63V37.5357H68.2902ZM65.8013 37.6886H68.4431V37.3488H65.8013V37.6886ZM65.9542 46.3539V37.5357H65.6144V46.3539H65.9542ZM58.5309 37.6314L65.6216 46.4708L65.8866 46.2583L58.796 37.4188L58.5309 37.6314ZM71.2478 48.0207V50.8875H71.5876V48.0207H71.2478ZM84.4796 47.8338H71.4347V48.1736H84.4796V47.8338ZM82.3433 51.0039L84.6258 48.1371L84.36 47.9255L82.0775 50.7922L82.3433 51.0039ZM71.4347 51.0743H82.1971V50.7346H71.4347V51.0743ZM71.2478 42.7631V45.6299H71.5876V42.7631H71.2478ZM84.4796 42.5762H71.4347V42.916H84.4796V42.5762ZM82.3433 45.7463L84.6258 42.8795L84.36 42.6679L82.0775 45.5346L82.3433 45.7463ZM71.4347 45.8167H82.1971V45.477H71.4347V45.8167ZM71.2478 37.5357V40.4025H71.5876V37.5357H71.2478ZM84.4796 37.3488H71.4347V37.6886H84.4796V37.3488ZM82.3433 40.5189L84.6258 37.6521L84.36 37.4405L82.0775 40.3072L82.3433 40.5189ZM71.4347 40.5893H82.1971V40.2496H71.4347V40.5893ZM91.4154 45.3196L95.2435 40.5535L94.9786 40.3407L91.1505 45.1068L91.4154 45.3196ZM95.9369 50.7921L91.4157 45.1285L91.1502 45.3404L95.6713 51.004L95.9369 50.7921ZM99.379 50.7346H95.8174V51.0743H99.379V50.7346ZM94.7276 45.3408L99.2598 50.9832L99.5247 50.7704L94.9925 45.1281L94.7276 45.3408ZM98.5741 40.3177L94.7276 45.1068L94.9925 45.3196L98.839 40.5305L98.5741 40.3177ZM98.5404 37.5357V40.4135H98.8802V37.5357H98.5404ZM86.2779 37.6886H98.6933V37.3488H86.2779V37.6886ZM86.4308 50.8875V37.5357H86.091V50.8875H86.4308ZM88.9479 50.7346H86.2779V51.0743H88.9479V50.7346ZM88.795 40.4365V50.8875H89.1347V40.4365H88.795ZM95.0978 40.2496H88.9818V40.5893H95.0978V40.2496ZM100.906 48.0207V50.8875H101.246V48.0207H100.906ZM109.18 47.8338H101.093V48.1736H109.18V47.8338ZM110.892 45.5691L109.06 47.892L109.326 48.1024L111.159 45.7796L110.892 45.5691ZM101.093 45.8167H111.012V45.477H101.093V45.8167ZM100.906 41.3923V45.6299H101.246V41.3923H100.906ZM104.037 37.4189L100.947 41.2755L101.212 41.4879L104.302 37.6313L104.037 37.4189ZM113.537 37.3488H104.183V37.6886H113.537V37.3488ZM113.724 40.4025V37.5357H113.384V40.4025H113.724ZM105.478 40.5893H113.537V40.2496H105.478V40.5893ZM103.738 42.8549L105.598 40.532L105.332 40.3197L103.472 42.6425L103.738 42.8549ZM113.537 42.6064H103.618V42.9462H113.537V42.6064ZM113.724 47.0308V42.7933H113.384V47.0308H113.724ZM110.593 51.0043L113.683 47.1477L113.417 46.9352L110.328 50.7919L110.593 51.0043ZM101.093 51.0743H110.447V50.7346H101.093V51.0743ZM116.09 50.8875V48.0207H115.75V50.8875H116.09ZM126.699 50.7346H115.937V51.0743H126.699V50.7346ZM128.862 47.9255L126.58 50.7922L126.845 51.0039L129.128 48.1371L128.862 47.9255ZM115.937 48.1736H128.982V47.8338H115.937V48.1736ZM116.09 45.6299V42.7631H115.75V45.6299H116.09ZM126.699 45.477H115.937V45.8167H126.699V45.477ZM128.862 42.6679L126.58 45.5346L126.845 45.7463L129.128 42.8795L128.862 42.6679ZM115.937 42.916H128.982V42.5762H115.937V42.916ZM116.09 40.4025V37.5357H115.75V40.4025H116.09ZM126.699 40.2496H115.937V40.5893H126.699V40.2496ZM128.862 37.4405L126.58 40.3072L126.845 40.5189L129.128 37.6521L128.862 37.4405ZM115.937 37.6886H128.982V37.3488H115.937V37.6886ZM129.128 37.6521C129.225 37.5297 129.138 37.3488 128.982 37.3488V37.6886C128.854 37.6886 128.782 37.5406 128.862 37.4405L129.128 37.6521ZM126.699 40.5893C126.756 40.5893 126.81 40.5634 126.845 40.5189L126.58 40.3072C126.609 40.2708 126.653 40.2496 126.699 40.2496V40.5893ZM116.09 37.5357C116.09 37.6202 116.021 37.6886 115.937 37.6886V37.3488C115.834 37.3488 115.75 37.4325 115.75 37.5357H116.09ZM115.75 40.4025C115.75 40.5057 115.834 40.5893 115.937 40.5893V40.2496C116.021 40.2496 116.09 40.318 116.09 40.4025H115.75ZM129.128 42.8795C129.225 42.7571 129.138 42.5762 128.982 42.5762V42.916C128.854 42.916 128.782 42.768 128.862 42.6679L129.128 42.8795ZM126.699 45.8167C126.756 45.8167 126.81 45.7908 126.845 45.7463L126.58 45.5346C126.609 45.4982 126.653 45.477 126.699 45.477V45.8167ZM116.09 42.7631C116.09 42.8475 116.021 42.916 115.937 42.916V42.5762C115.834 42.5762 115.75 42.6599 115.75 42.7631H116.09ZM115.75 45.6299C115.75 45.7331 115.834 45.8167 115.937 45.8167V45.477C116.021 45.477 116.09 45.5454 116.09 45.6299H115.75ZM129.128 48.1371C129.225 48.0147 129.138 47.8338 128.982 47.8338V48.1736C128.854 48.1736 128.782 48.0256 128.862 47.9255L129.128 48.1371ZM126.699 51.0743C126.756 51.0743 126.81 51.0484 126.845 51.0039L126.58 50.7922C126.609 50.7558 126.653 50.7346 126.699 50.7346V51.0743ZM116.09 48.0207C116.09 48.1051 116.021 48.1736 115.937 48.1736V47.8338C115.834 47.8338 115.75 47.9175 115.75 48.0207H116.09ZM115.75 50.8875C115.75 50.9907 115.834 51.0743 115.937 51.0743V50.7346C116.021 50.7346 116.09 50.803 116.09 50.8875H115.75ZM110.328 50.7919C110.357 50.7556 110.401 50.7346 110.447 50.7346V51.0743C110.504 51.0743 110.558 51.0486 110.593 51.0043L110.328 50.7919ZM113.384 47.0308C113.384 46.9961 113.396 46.9624 113.417 46.9352L113.683 47.1477C113.709 47.1145 113.724 47.0733 113.724 47.0308H113.384ZM113.537 42.9462C113.452 42.9462 113.384 42.8777 113.384 42.7933H113.724C113.724 42.6901 113.64 42.6064 113.537 42.6064V42.9462ZM103.472 42.6425C103.374 42.7649 103.462 42.9462 103.618 42.9462V42.6064C103.747 42.6064 103.818 42.7548 103.738 42.8549L103.472 42.6425ZM105.478 40.2496C105.421 40.2496 105.368 40.2754 105.332 40.3197L105.598 40.532C105.569 40.5683 105.525 40.5893 105.478 40.5893V40.2496ZM113.384 40.4025C113.384 40.318 113.452 40.2496 113.537 40.2496V40.5893C113.64 40.5893 113.724 40.5057 113.724 40.4025H113.384ZM113.537 37.6886C113.452 37.6886 113.384 37.6202 113.384 37.5357H113.724C113.724 37.4325 113.64 37.3488 113.537 37.3488V37.6886ZM104.302 37.6313C104.273 37.6675 104.229 37.6886 104.183 37.6886V37.3488C104.126 37.3488 104.072 37.3746 104.037 37.4189L104.302 37.6313ZM101.246 41.3923C101.246 41.4271 101.234 41.4608 101.212 41.4879L100.947 41.2755C100.921 41.3087 100.906 41.3499 100.906 41.3923H101.246ZM101.093 45.477C101.178 45.477 101.246 45.5454 101.246 45.6299H100.906C100.906 45.7331 100.99 45.8167 101.093 45.8167V45.477ZM111.159 45.7796C111.255 45.657 111.168 45.477 111.012 45.477V45.8167C110.884 45.8167 110.813 45.6694 110.892 45.5691L111.159 45.7796ZM109.18 48.1736C109.237 48.1736 109.291 48.1474 109.326 48.1024L109.06 47.892C109.089 47.8553 109.133 47.8338 109.18 47.8338V48.1736ZM100.906 50.8875C100.906 50.9907 100.99 51.0743 101.093 51.0743V50.7346C101.178 50.7346 101.246 50.803 101.246 50.8875H100.906ZM101.246 48.0207C101.246 48.1051 101.178 48.1736 101.093 48.1736V47.8338C100.99 47.8338 100.906 47.9175 100.906 48.0207H101.246ZM89.1347 40.4365C89.1347 40.5209 89.0663 40.5893 88.9818 40.5893V40.2496C88.8786 40.2496 88.795 40.3333 88.795 40.4365H89.1347ZM88.9479 51.0743C89.0511 51.0743 89.1347 50.9907 89.1347 50.8875H88.795C88.795 50.803 88.8634 50.7346 88.9479 50.7346V51.0743ZM86.091 50.8875C86.091 50.9907 86.1747 51.0743 86.2779 51.0743V50.7346C86.3624 50.7346 86.4308 50.803 86.4308 50.8875H86.091ZM86.2779 37.3488C86.1747 37.3488 86.091 37.4325 86.091 37.5357H86.4308C86.4308 37.6201 86.3624 37.6886 86.2779 37.6886V37.3488ZM98.8802 37.5357C98.8802 37.4325 98.7965 37.3488 98.6933 37.3488V37.6886C98.6088 37.6886 98.5404 37.6202 98.5404 37.5357H98.8802ZM98.839 40.5305C98.8656 40.4973 98.8802 40.456 98.8802 40.4135H98.5404C98.5404 40.3787 98.5523 40.3449 98.5741 40.3177L98.839 40.5305ZM91.1505 45.1068C91.0958 45.175 91.0956 45.2721 91.1502 45.3404L91.4157 45.1285C91.4604 45.1844 91.4602 45.2638 91.4154 45.3196L91.1505 45.1068ZM82.0775 40.3072C82.1065 40.2708 82.1505 40.2496 82.1971 40.2496V40.5893C82.254 40.5893 82.3078 40.5634 82.3433 40.5189L82.0775 40.3072ZM84.4796 37.6886C84.3516 37.6886 84.2803 37.5406 84.36 37.4405L84.6258 37.6521C84.7233 37.5297 84.6361 37.3488 84.4796 37.3488V37.6886ZM71.2478 40.4025C71.2478 40.5057 71.3315 40.5893 71.4347 40.5893V40.2496C71.5192 40.2496 71.5876 40.318 71.5876 40.4025H71.2478ZM71.5876 37.5357C71.5876 37.6202 71.5191 37.6886 71.4347 37.6886V37.3488C71.3315 37.3488 71.2478 37.4325 71.2478 37.5357H71.5876ZM82.0775 45.5346C82.1065 45.4982 82.1505 45.477 82.1971 45.477V45.8167C82.254 45.8167 82.3078 45.7908 82.3433 45.7463L82.0775 45.5346ZM84.4796 42.916C84.3516 42.916 84.2803 42.768 84.36 42.6679L84.6258 42.8795C84.7233 42.7571 84.6361 42.5762 84.4796 42.5762V42.916ZM71.2478 45.6299C71.2478 45.7331 71.3315 45.8167 71.4347 45.8167V45.477C71.5192 45.477 71.5876 45.5454 71.5876 45.6299H71.2478ZM71.5876 42.7631C71.5876 42.8475 71.5191 42.916 71.4347 42.916V42.5762C71.3315 42.5762 71.2478 42.6599 71.2478 42.7631H71.5876ZM82.0775 50.7922C82.1065 50.7558 82.1505 50.7346 82.1971 50.7346V51.0743C82.254 51.0743 82.3078 51.0484 82.3433 51.0039L82.0775 50.7922ZM84.4796 48.1736C84.3516 48.1736 84.2803 48.0256 84.36 47.9255L84.6258 48.1371C84.7233 48.0147 84.6361 47.8338 84.4796 47.8338V48.1736ZM71.2478 50.8875C71.2478 50.9907 71.3315 51.0743 71.4347 51.0743V50.7346C71.5192 50.7346 71.5876 50.803 71.5876 50.8875H71.2478ZM71.5876 48.0207C71.5876 48.1051 71.5191 48.1736 71.4347 48.1736V47.8338C71.3315 47.8338 71.2478 47.9175 71.2478 48.0207H71.5876ZM65.6144 46.3539C65.6144 46.2095 65.7962 46.1456 65.8866 46.2583L65.6216 46.4708C65.732 46.6085 65.9542 46.5304 65.9542 46.3539H65.6144ZM65.8013 37.3488C65.6981 37.3488 65.6144 37.4325 65.6144 37.5357H65.9542C65.9542 37.6201 65.8858 37.6886 65.8013 37.6886V37.3488ZM68.63 37.5357C68.63 37.4325 68.5463 37.3488 68.4431 37.3488V37.6886C68.3587 37.6886 68.2902 37.6202 68.2902 37.5357H68.63ZM68.4431 51.0743C68.5463 51.0743 68.63 50.9907 68.63 50.8875H68.2902C68.2902 50.803 68.3587 50.7346 68.4431 50.7346V51.0743ZM65.6467 51.0043C65.6821 51.0486 65.7358 51.0743 65.7925 51.0743V50.7346C65.8389 50.7346 65.8828 50.7556 65.9118 50.7918L65.6467 51.0043ZM58.6502 37.6886C58.6038 37.6886 58.5599 37.6676 58.5309 37.6314L58.796 37.4188C58.7605 37.3746 58.7069 37.3488 58.6502 37.3488V37.6886ZM55.0885 37.3488C54.9317 37.3488 54.8446 37.5303 54.9427 37.6526L55.2078 37.4401C55.288 37.5402 55.2168 37.6886 55.0885 37.6886V37.3488ZM50.544 50.7962C50.625 50.8007 50.6883 50.8677 50.6883 50.9488H50.3485C50.3485 51.048 50.426 51.1299 50.525 51.1354L50.544 50.7962ZM53.0525 51.098C53.0525 51.0102 53.1262 50.9404 53.2139 50.9453L53.1949 51.2846C53.3021 51.2906 53.3922 51.2053 53.3922 51.098H53.0525ZM50.5354 37.3488C50.4322 37.3488 50.3485 37.4325 50.3485 37.5357H50.6883C50.6883 37.6202 50.6199 37.6886 50.5354 37.6886V37.3488ZM53.2054 37.6886C53.1209 37.6886 53.0525 37.6201 53.0525 37.5357H53.3922C53.3922 37.4325 53.3086 37.3488 53.2054 37.3488V37.6886ZM35.3362 50.8875C35.3362 50.9907 35.4199 51.0743 35.5231 51.0743V50.7346C35.6075 50.7346 35.676 50.803 35.676 50.8875H35.3362ZM35.5231 37.3488C35.4199 37.3488 35.3362 37.4325 35.3362 37.5357H35.676C35.676 37.6201 35.6075 37.6886 35.5231 37.6886V37.3488ZM38.3194 37.4186C38.2839 37.3745 38.2303 37.3488 38.1737 37.3488V37.6886C38.1274 37.6886 38.0836 37.6676 38.0546 37.6315L38.3194 37.4186ZM45.2506 46.4749C45.2506 46.3305 45.4323 46.2666 45.5227 46.3791L45.2579 46.592C45.3684 46.7295 45.5904 46.6513 45.5904 46.4749H45.2506ZM45.4375 37.3488C45.3343 37.3488 45.2506 37.4325 45.2506 37.5357H45.5904C45.5904 37.6201 45.522 37.6886 45.4375 37.6886V37.3488ZM48.2662 37.5357C48.2662 37.4325 48.1825 37.3488 48.0793 37.3488V37.6886C47.9949 37.6886 47.9264 37.6202 47.9264 37.5357H48.2662ZM48.0793 51.0743C48.1825 51.0743 48.2662 50.9907 48.2662 50.8875H47.9264C47.9264 50.803 47.9948 50.7346 48.0793 50.7346V51.0743ZM45.1702 51.0044C45.2057 51.0486 45.2593 51.0743 45.316 51.0743V50.7346C45.3624 50.7346 45.4063 50.7556 45.4353 50.7918L45.1702 51.0044ZM38.012 50.8875C38.012 50.803 38.0804 50.7346 38.1649 50.7346V51.0743C38.2681 51.0743 38.3518 50.9907 38.3518 50.8875H38.012ZM38.3518 42.0692C38.3518 42.2137 38.17 42.2776 38.0796 42.1649L38.3446 41.9523C38.2342 41.8146 38.012 41.8927 38.012 42.0692H38.3518ZM33.28 50.8875C33.28 50.803 33.3484 50.7346 33.4328 50.7346V51.0743C33.5361 51.0743 33.6197 50.9907 33.6197 50.8875H33.28ZM33.4328 37.6886C33.3484 37.6886 33.28 37.6201 33.28 37.5357H33.6197C33.6197 37.4325 33.5361 37.3488 33.4328 37.3488V37.6886ZM30.944 37.5357C30.944 37.6202 30.8755 37.6886 30.7911 37.6886V37.3488C30.6879 37.3488 30.6042 37.4325 30.6042 37.5357H30.944ZM30.7571 48.1736C30.8603 48.1736 30.944 48.0899 30.944 47.9867H30.6042C30.6042 47.9023 30.6726 47.8338 30.7571 47.8338V48.1736ZM25.2283 48.1032C25.2637 48.1477 25.3175 48.1736 25.3744 48.1736V47.8338C25.4209 47.8338 25.4649 47.855 25.494 47.8914L25.2283 48.1032ZM23.5345 45.9128C23.5345 45.9552 23.5489 45.9962 23.5753 46.0293L23.841 45.8176C23.8625 45.8446 23.8743 45.8782 23.8743 45.9128H23.5345ZM23.6874 37.6886C23.603 37.6886 23.5345 37.6201 23.5345 37.5357H23.8743C23.8743 37.4325 23.7906 37.3488 23.6874 37.3488V37.6886ZM21.1704 37.5357C21.1704 37.6202 21.1019 37.6886 21.0175 37.6886V37.3488C20.9143 37.3488 20.8306 37.4325 20.8306 37.5357H21.1704ZM23.9611 51.0043C23.9965 51.0486 24.0502 51.0743 24.1069 51.0743V50.7346C24.1533 50.7346 24.1972 50.7556 24.2262 50.7919L23.9611 51.0043ZM21.1368 46.9352C21.1585 46.9624 21.1704 46.9961 21.1704 47.0308H20.8306C20.8306 47.0733 20.8451 47.1145 20.8716 47.1477L21.1368 46.9352ZM114.369 21.2448C114.466 21.1224 114.379 20.9415 114.223 20.9415V21.2813C114.095 21.2813 114.023 21.1333 114.103 21.0331L114.369 21.2448ZM111.94 24.182C111.997 24.182 112.051 24.1561 112.086 24.1115L111.82 23.8999C111.849 23.8635 111.893 23.8422 111.94 23.8422V24.182ZM101.331 26.3558C101.331 26.4402 101.262 26.5087 101.178 26.5087V26.1689C101.074 26.1689 100.991 26.2525 100.991 26.3558H101.331ZM100.991 29.2225C100.991 29.3257 101.075 29.4094 101.178 29.4094V29.0696C101.262 29.0696 101.331 29.1381 101.331 29.2225H100.991ZM114.369 31.6995C114.466 31.5771 114.379 31.3963 114.223 31.3963V31.736C114.095 31.736 114.023 31.5881 114.103 31.4879L114.369 31.6995ZM111.94 34.6368C111.997 34.6368 112.051 34.6108 112.086 34.5663L111.82 34.3547C111.849 34.3182 111.893 34.297 111.94 34.297V34.6368ZM101.331 31.5831C101.331 31.6676 101.262 31.736 101.178 31.736V31.3963C101.074 31.3963 100.991 31.4799 100.991 31.5831H101.331ZM100.991 34.4499C100.991 34.5531 101.075 34.6368 101.178 34.6368V34.297C101.262 34.297 101.331 34.3655 101.331 34.4499H100.991ZM98.5404 34.4499C98.5404 34.3655 98.6089 34.297 98.6933 34.297V34.6368C98.7965 34.6368 98.8802 34.5531 98.8802 34.4499H98.5404ZM98.6933 31.7662C98.6089 31.7662 98.5404 31.6978 98.5404 31.6134H98.8802C98.8802 31.5101 98.7965 31.4265 98.6933 31.4265V31.7662ZM88.8513 31.5794C88.8513 31.6826 88.935 31.7662 89.0382 31.7662V31.4265C89.1226 31.4265 89.1911 31.4949 89.1911 31.5794H88.8513ZM89.1241 21.2551C89.0341 21.3687 88.8513 21.3051 88.8513 21.1602H89.1911C89.1911 20.9831 88.9677 20.9053 88.8577 21.0442L89.1241 21.2551ZM86.1474 34.4499C86.1474 34.5531 86.231 34.6368 86.3343 34.6368V34.297C86.4187 34.297 86.4871 34.3655 86.4871 34.4499H86.1474ZM86.4871 24.5317C86.4871 24.5662 86.4755 24.5996 86.4541 24.6266L86.1878 24.4157C86.1616 24.4487 86.1474 24.4896 86.1474 24.5317H86.4871ZM68.2903 34.4499C68.2903 34.3655 68.3588 34.297 68.4432 34.297V34.6368C68.5464 34.6368 68.6301 34.5531 68.6301 34.4499H68.2903ZM68.4772 23.8422C68.374 23.8422 68.2903 23.9259 68.2903 24.0291H68.6301C68.6301 24.1136 68.5617 24.182 68.4772 24.182V23.8422ZM76.9671 24.0291C76.9671 23.9259 76.8834 23.8422 76.7802 23.8422V24.182C76.6958 24.182 76.6273 24.1136 76.6273 24.0291H76.9671ZM76.8142 34.297C76.8986 34.297 76.9671 34.3655 76.9671 34.4499H76.6273C76.6273 34.5531 76.711 34.6368 76.8142 34.6368V34.297ZM79.3312 34.4499C79.3312 34.3655 79.3997 34.297 79.4841 34.297V34.6368C79.5873 34.6368 79.671 34.5531 79.671 34.4499H79.3312ZM79.5181 23.8422C79.4149 23.8422 79.3312 23.9259 79.3312 24.0291H79.671C79.671 24.1136 79.6026 24.182 79.5181 24.182V23.8422ZM83.8523 23.8992C83.8814 23.8632 83.9251 23.8422 83.9714 23.8422V24.182C84.0279 24.182 84.0814 24.1564 84.1169 24.1124L83.8523 23.8992ZM86.2818 21.2813C86.1533 21.2813 86.0821 21.1325 86.1627 21.0324L86.4273 21.2456C86.5258 21.1234 86.4388 20.9415 86.2818 20.9415V21.2813ZM57.8839 21.0331C57.9636 21.1333 57.8923 21.2813 57.7642 21.2813V20.9415C57.6078 20.9415 57.5206 21.1223 57.6181 21.2448L57.8839 21.0331ZM60.0468 23.8422C60.0934 23.8422 60.1374 23.8635 60.1664 23.8999L59.9006 24.1115C59.9361 24.1561 59.9899 24.182 60.0468 24.182V23.8422ZM65.6146 34.4499C65.6146 34.5531 65.6982 34.6368 65.8015 34.6368V34.297C65.8859 34.297 65.9543 34.3655 65.9543 34.4499H65.6146ZM65.9543 24.0291C65.9543 23.9259 65.8707 23.8422 65.7675 23.8422V24.182C65.683 24.182 65.6146 24.1136 65.6146 24.0291H65.9543ZM53.2054 34.6368C53.3086 34.6368 53.3922 34.5531 53.3922 34.4499H53.0525C53.0525 34.3655 53.1209 34.297 53.2054 34.297V34.6368ZM50.3485 34.4499C50.3485 34.5531 50.4322 34.6368 50.5354 34.6368V34.297C50.6199 34.297 50.6883 34.3655 50.6883 34.4499H50.3485ZM50.5354 20.9415C50.4322 20.9415 50.3485 21.0252 50.3485 21.1284H50.6883C50.6883 21.2128 50.6199 21.2813 50.5354 21.2813V20.9415ZM53.36 21.0115C53.3246 20.9673 53.2709 20.9415 53.2142 20.9415V21.2813C53.1678 21.2813 53.1239 21.2602 53.0949 21.224L53.36 21.0115ZM63.89 34.6368C64.0468 34.6368 64.1339 34.4554 64.0359 34.333L63.7707 34.5455C63.6905 34.4454 63.7618 34.297 63.89 34.297V34.6368ZM53.3857 25.4555C53.2757 25.3169 53.0525 25.3947 53.0525 25.5717H53.3922C53.3922 25.7165 53.2096 25.7802 53.1196 25.6667L53.3857 25.4555ZM60.182 34.5661C60.2175 34.6107 60.2714 34.6368 60.3284 34.6368V34.297C60.375 34.297 60.4191 34.3183 60.4482 34.3549L60.182 34.5661ZM41.3254 27.672C41.2704 27.7402 41.2702 27.8374 41.3249 27.9058L41.5903 27.6937C41.6351 27.7497 41.6349 27.8293 41.59 27.8851L41.3254 27.672ZM44.4555 24.182C44.3271 24.182 44.2559 24.0332 44.3365 23.9332L44.6011 24.1463C44.6996 24.0241 44.6125 23.8422 44.4555 23.8422V24.182ZM38.3518 24.0291C38.3518 24.1136 38.2833 24.182 38.1989 24.182V23.8422C38.0957 23.8422 38.012 23.9259 38.012 24.0291H38.3518ZM44.4557 31.7662C44.6124 31.7662 44.6995 31.5851 44.6017 31.4627L44.3363 31.6748C44.2563 31.5747 44.3276 31.4265 44.4557 31.4265V31.7662ZM38.1989 31.4265C38.2833 31.4265 38.3518 31.4949 38.3518 31.5794H38.012C38.012 31.6826 38.0957 31.7662 38.1989 31.7662V31.4265ZM48.2662 21.1284C48.2662 21.0252 48.1825 20.9415 48.0793 20.9415V21.2813C47.9949 21.2813 47.9264 21.2128 47.9264 21.1284H48.2662ZM48.2248 24.1234C48.2516 24.0901 48.2662 24.0488 48.2662 24.0061H47.9264C47.9264 23.9713 47.9383 23.9374 47.9602 23.9102L48.2248 24.1234ZM45.1956 27.6937C45.2403 27.7497 45.2402 27.8293 45.1952 27.8851L44.9306 27.672C44.8757 27.7402 44.8755 27.8374 44.9301 27.9058L45.1956 27.6937ZM101.331 21.1284C101.331 21.2128 101.262 21.2813 101.178 21.2813V20.9415C101.074 20.9415 100.991 21.0252 100.991 21.1284H101.331ZM94.9925 45.1281C95.0375 45.184 95.0375 45.2636 94.9925 45.3196L94.7276 45.1068C94.6727 45.1752 94.6727 45.2725 94.7276 45.3408L94.9925 45.1281ZM48.2662 31.6023C48.2662 31.5599 48.2518 31.5188 48.2253 31.4857L47.9598 31.6978C47.9382 31.6707 47.9264 31.637 47.9264 31.6023H48.2662ZM100.991 23.9951C100.991 24.0984 101.075 24.182 101.178 24.182V23.8422C101.262 23.8422 101.331 23.9107 101.331 23.9951H100.991ZM99.379 51.0743C99.5359 51.0743 99.6229 50.8927 99.5247 50.7704L99.2598 50.9832C99.1794 50.8831 99.2506 50.7346 99.379 50.7346V51.0743ZM48.0793 34.667C48.1825 34.667 48.2662 34.5833 48.2662 34.4801H47.9264C47.9264 34.3957 47.9949 34.3272 48.0793 34.3272V34.667ZM114.369 26.4722C114.466 26.3497 114.379 26.1689 114.223 26.1689V26.5087C114.095 26.5087 114.023 26.3607 114.103 26.2605L114.369 26.4722ZM95.6713 51.004C95.7068 51.0485 95.7605 51.0743 95.8174 51.0743V50.7346C95.8639 50.7346 95.9078 50.7557 95.9369 50.7921L95.6713 51.004ZM35.3362 34.4801C35.3362 34.5833 35.4199 34.667 35.5231 34.667V34.3272C35.6075 34.3272 35.676 34.3957 35.676 34.4801H35.3362ZM111.94 29.4094C111.997 29.4094 112.051 29.3835 112.086 29.3389L111.82 29.1273C111.849 29.0909 111.893 29.0696 111.94 29.0696V29.4094ZM95.2435 40.5535C95.3417 40.4312 95.2546 40.2496 95.0978 40.2496V40.5893C94.9694 40.5893 94.8982 40.4408 94.9786 40.3407L95.2435 40.5535ZM35.676 21.1284C35.676 21.2128 35.6075 21.2813 35.5231 21.2813V20.9415C35.4199 20.9415 35.3362 21.0252 35.3362 21.1284H35.676Z" fill="#57B2CD" mask="url(#path-1-outside-1)"/>
</g>
<defs>
<filter id="filter0_d" x="0.830566" y="0.941513" width="148.338" height="70.3434" filterUnits="userSpaceOnUse" color-interpolation-filters="sRGB">
<feFlood flood-opacity="0" result="BackgroundImageFix"/>
<feColorMatrix in="SourceAlpha" type="matrix" values="0 0 0 0 0 0 0 0 0 0 0 0 0 0 0 0 0 0 127 0" result="hardAlpha"/>
<feOffset/>
<feGaussianBlur stdDeviation="10"/>
<feComposite in2="hardAlpha" operator="out"/>
<feColorMatrix type="matrix" values="0 0 0 0 0.341176 0 0 0 0 0.698039 0 0 0 0 0.803922 0 0 0 1 0"/>
<feBlend mode="normal" in2="BackgroundImageFix" result="effect1_dropShadow"/>
<feBlend mode="normal" in="SourceGraphic" in2="effect1_dropShadow" result="shape"/>
</filter>
</defs>
</svg>
