<svg width="122" height="45" viewBox="0 0 122 45" fill="none" xmlns="http://www.w3.org/2000/svg">
<g filter="url(#filter0_d)">
<mask id="path-1-outside-1" maskUnits="userSpaceOnUse" x="6.00049" y="6.11139" width="110" height="32" fill="black">
<rect fill="white" x="6.00049" y="6.11139" width="110" height="32"/>
<path fill-rule="evenodd" clip-rule="evenodd" d="M21.5231 7.11139C21.5137 7.11139 21.5061 7.119 21.5061 7.12838V20.4669V20.4801C21.5061 20.4895 21.5137 20.4971 21.5231 20.4971H34.0793C34.0887 20.4971 34.0963 20.4895 34.0963 20.4801V17.6023C34.0963 17.5985 34.095 17.5947 34.0926 17.5917L31.0629 13.7998C31.0579 13.7936 31.0579 13.7847 31.0629 13.7785L34.0925 10.0168C34.095 10.0138 34.0963 10.01 34.0963 10.0061V7.12838C34.0963 7.119 34.0887 7.11139 34.0793 7.11139H21.5231ZM30.469 17.5688C30.4779 17.5799 30.47 17.5964 30.4557 17.5964H24.1989C24.1895 17.5964 24.1819 17.5888 24.1819 17.5794V10.0291C24.1819 10.0197 24.1895 10.0121 24.1989 10.0121H30.4555C30.4698 10.0121 30.4777 10.0287 30.4688 10.0398L27.4577 13.7785C27.4527 13.7847 27.4527 13.7936 27.4576 13.7998L30.469 17.5688ZM39.2224 11.5717C39.2224 11.5556 39.2427 11.5485 39.2527 11.5611L46.3151 20.4605C46.3183 20.4645 46.3232 20.4669 46.3284 20.4669H49.89C49.9043 20.4669 49.9122 20.4504 49.9033 20.4393L39.2275 7.11775C39.2242 7.11373 39.2194 7.11139 39.2142 7.11139H36.5354C36.526 7.11139 36.5184 7.119 36.5184 7.12838V20.4499C36.5184 20.4593 36.526 20.4669 36.5354 20.4669H39.2054C39.2148 20.4669 39.2224 20.4593 39.2224 20.4499V11.5717ZM51.8015 20.4669C51.7921 20.4669 51.7845 20.4593 51.7845 20.4499V10.0291C51.7845 10.0197 51.7769 10.0121 51.7675 10.0121H46.0468C46.0416 10.0121 46.0367 10.0098 46.0335 10.0057L43.751 7.13896C43.7421 7.12783 43.75 7.11139 43.7642 7.11139H58.5441H58.6006H72.2818C72.296 7.11139 72.3039 7.12792 72.295 7.13904L69.9846 10.0058C69.9814 10.0098 69.9765 10.0121 69.9714 10.0121H65.5181C65.5087 10.0121 65.5011 10.0197 65.5011 10.0291V20.4499C65.5011 20.4593 65.4935 20.4669 65.4841 20.4669H62.8142C62.8048 20.4669 62.7972 20.4593 62.7972 20.4499V10.0291C62.7972 10.0197 62.7896 10.0121 62.7802 10.0121H58.6006H58.5441H54.4772C54.4678 10.0121 54.4602 10.0197 54.4602 10.0291V20.4499C54.4602 20.4593 54.4526 20.4669 54.4432 20.4669H51.8015ZM72.3343 20.4669C72.3249 20.4669 72.3173 20.4593 72.3173 20.4499V10.5317C72.3173 10.5279 72.3186 10.5242 72.3209 10.5212L74.9909 7.14966C75.0009 7.13704 75.0212 7.1441 75.0212 7.16021V17.5794C75.0212 17.5888 75.0288 17.5964 75.0382 17.5964H84.6933C84.7027 17.5964 84.7103 17.604 84.7103 17.6134V20.4499C84.7103 20.4593 84.7027 20.4669 84.6933 20.4669H72.3343ZM87.1777 17.5661C87.1683 17.5661 87.1607 17.5738 87.1607 17.5831V20.4499C87.1607 20.4593 87.1683 20.4669 87.1777 20.4669H97.9401C97.9452 20.4669 97.9501 20.4645 97.9534 20.4605L100.236 17.5937C100.245 17.5826 100.237 17.5661 100.223 17.5661H87.1777ZM87.1777 12.3388C87.1683 12.3388 87.1607 12.3464 87.1607 12.3558V15.2225C87.1607 15.2319 87.1683 15.2395 87.1777 15.2395H97.9401C97.9452 15.2395 97.9501 15.2372 97.9534 15.2331L100.236 12.3663C100.245 12.3552 100.237 12.3388 100.223 12.3388H87.1777ZM87.1777 7.11139C87.1683 7.11139 87.1607 7.119 87.1607 7.12838V9.99514C87.1607 10.0045 87.1683 10.0121 87.1777 10.0121H97.9401C97.9452 10.0121 97.9501 10.0098 97.9534 10.0057L100.236 7.13896C100.245 7.12783 100.237 7.11139 100.223 7.11139H87.1777ZM10.1069 36.9044C10.1017 36.9044 10.0969 36.9021 10.0936 36.8981L7.00422 33.0414C7.0018 33.0384 7.00049 33.0347 7.00049 33.0308V23.5357C7.00049 23.5263 7.00809 23.5187 7.01748 23.5187H9.68743C9.69681 23.5187 9.70442 23.5263 9.70442 23.5357V31.9128C9.70442 31.9167 9.70572 31.9204 9.70812 31.9234L11.3611 33.9973C11.3643 34.0013 11.3692 34.0037 11.3744 34.0037H16.7571C16.7665 34.0037 16.7741 33.9961 16.7741 33.9867V23.5357C16.7741 23.5263 16.7817 23.5187 16.7911 23.5187H19.4328C19.4422 23.5187 19.4498 23.5263 19.4498 23.5357V36.8875C19.4498 36.8968 19.4422 36.9044 19.4328 36.9044H10.1069ZM24.1649 36.9044C24.1743 36.9044 24.1819 36.8968 24.1819 36.8875V28.0692C24.1819 28.0532 24.2021 28.0461 24.2121 28.0586L31.3028 36.8981C31.306 36.9021 31.3109 36.9044 31.316 36.9044H34.0793C34.0887 36.9044 34.0963 36.8968 34.0963 36.8875V23.5357C34.0963 23.5263 34.0887 23.5187 34.0793 23.5187H31.4375C31.4281 23.5187 31.4205 23.5263 31.4205 23.5357V32.4749C31.4205 32.4909 31.4003 32.498 31.3903 32.4855L24.187 23.5251C24.1837 23.5211 24.1789 23.5187 24.1737 23.5187H21.5231C21.5137 23.5187 21.5061 23.5263 21.5061 23.5357V36.8875C21.5061 36.8968 21.5137 36.9044 21.5231 36.9044H24.1649ZM36.5184 23.5357C36.5184 23.5263 36.526 23.5187 36.5354 23.5187H39.2054C39.2148 23.5187 39.2224 23.5263 39.2224 23.5357V37.098C39.2224 37.1077 39.2142 37.1155 39.2044 37.115L36.5345 36.9658C36.5255 36.9653 36.5184 36.9578 36.5184 36.9488V23.5357ZM44.6634 23.5251C44.6602 23.5211 44.6553 23.5187 44.6502 23.5187H41.0885C41.0742 23.5187 41.0663 23.5352 41.0752 23.5463L51.7792 36.8981C51.7824 36.9021 51.7873 36.9044 51.7925 36.9044H54.4431C54.4525 36.9044 54.4601 36.8968 54.4601 36.8875V23.5357C54.4601 23.5263 54.4525 23.5187 54.4431 23.5187H51.8013C51.7919 23.5187 51.7843 23.5263 51.7843 23.5357V32.3539C51.7843 32.37 51.7641 32.3771 51.7541 32.3645L44.6634 23.5251ZM57.4347 36.9044C57.4253 36.9044 57.4177 36.8968 57.4177 36.8875V34.0207C57.4177 34.0113 57.4253 34.0037 57.4347 34.0037H70.4796C70.4939 34.0037 70.5018 34.0201 70.4929 34.0313L68.2104 36.898C68.2071 36.9021 68.2023 36.9044 68.1971 36.9044H57.4347ZM57.4347 31.6468C57.4253 31.6468 57.4177 31.6392 57.4177 31.6299V28.7631C57.4177 28.7537 57.4253 28.7461 57.4347 28.7461H70.4796C70.4939 28.7461 70.5018 28.7625 70.4929 28.7737L68.2104 31.6404C68.2071 31.6445 68.2023 31.6468 68.1971 31.6468H57.4347ZM57.4347 26.4195C57.4253 26.4195 57.4177 26.4119 57.4177 26.4025V23.5357C57.4177 23.5263 57.4253 23.5187 57.4347 23.5187H70.4796C70.4939 23.5187 70.5018 23.5352 70.4929 23.5463L68.2104 26.4131C68.2071 26.4171 68.2023 26.4195 68.1971 26.4195H57.4347ZM81.0978 26.4195C81.112 26.4195 81.1199 26.436 81.111 26.4471L77.283 31.2132C77.278 31.2194 77.278 31.2282 77.283 31.2345L81.8041 36.8981C81.8073 36.9021 81.8122 36.9044 81.8174 36.9044H85.379C85.3932 36.9044 85.4012 36.8879 85.3922 36.8768L80.8601 31.2345C80.8551 31.2282 80.8551 31.2194 80.8601 31.2132L84.7065 26.4241C84.709 26.4211 84.7103 26.4174 84.7103 26.4135V23.5357C84.7103 23.5263 84.7027 23.5187 84.6933 23.5187H72.2779C72.2685 23.5187 72.2609 23.5263 72.2609 23.5357V36.8875C72.2609 36.8968 72.2685 36.9044 72.2779 36.9044H74.9479C74.9573 36.9044 74.9649 36.8968 74.9649 36.8875V26.4365C74.9649 26.4271 74.9725 26.4195 74.9818 26.4195H81.0978ZM87.0932 36.9044C87.0838 36.9044 87.0762 36.8968 87.0762 36.8875V34.0207C87.0762 34.0113 87.0838 34.0037 87.0932 34.0037H95.1797C95.1849 34.0037 95.1898 34.0013 95.1931 33.9972L97.0252 31.6744C97.034 31.6632 97.0261 31.6468 97.0119 31.6468H87.0932C87.0838 31.6468 87.0762 31.6392 87.0762 31.6299V27.3923C87.0762 27.3885 87.0775 27.3847 87.0799 27.3817L90.1693 23.5251C90.1725 23.5211 90.1774 23.5187 90.1826 23.5187H99.5367C99.5461 23.5187 99.5537 23.5263 99.5537 23.5357V26.4025C99.5537 26.4119 99.5461 26.4195 99.5367 26.4195H91.4782C91.4731 26.4195 91.4682 26.4218 91.465 26.4258L89.605 28.7487C89.5961 28.7598 89.6041 28.7763 89.6183 28.7763H99.5367C99.5461 28.7763 99.5537 28.7839 99.5537 28.7933V33.0308C99.5537 33.0347 99.5524 33.0384 99.55 33.0414L96.4605 36.8981C96.4573 36.9021 96.4524 36.9044 96.4473 36.9044H87.0932ZM101.937 34.0037C101.927 34.0037 101.92 34.0113 101.92 34.0207V36.8875C101.92 36.8968 101.927 36.9044 101.937 36.9044H112.699C112.704 36.9044 112.709 36.9021 112.712 36.898L114.995 34.0313C115.004 34.0201 114.996 34.0037 114.982 34.0037H101.937ZM101.937 28.7461C101.927 28.7461 101.92 28.7537 101.92 28.7631V31.6299C101.92 31.6392 101.927 31.6468 101.937 31.6468H112.699C112.704 31.6468 112.709 31.6445 112.712 31.6404L114.995 28.7737C115.004 28.7625 114.996 28.7461 114.982 28.7461H101.937ZM101.937 23.5187C101.927 23.5187 101.92 23.5263 101.92 23.5357V26.4025C101.92 26.4119 101.927 26.4195 101.937 26.4195H112.699C112.704 26.4195 112.709 26.4171 112.712 26.4131L114.995 23.5463C115.004 23.5352 114.996 23.5187 114.982 23.5187H101.937Z"/>
</mask>
<path fill-rule="evenodd" clip-rule="evenodd" d="M21.5231 7.11139C21.5137 7.11139 21.5061 7.119 21.5061 7.12838V20.4669V20.4801C21.5061 20.4895 21.5137 20.4971 21.5231 20.4971H34.0793C34.0887 20.4971 34.0963 20.4895 34.0963 20.4801V17.6023C34.0963 17.5985 34.095 17.5947 34.0926 17.5917L31.0629 13.7998C31.0579 13.7936 31.0579 13.7847 31.0629 13.7785L34.0925 10.0168C34.095 10.0138 34.0963 10.01 34.0963 10.0061V7.12838C34.0963 7.119 34.0887 7.11139 34.0793 7.11139H21.5231ZM30.469 17.5688C30.4779 17.5799 30.47 17.5964 30.4557 17.5964H24.1989C24.1895 17.5964 24.1819 17.5888 24.1819 17.5794V10.0291C24.1819 10.0197 24.1895 10.0121 24.1989 10.0121H30.4555C30.4698 10.0121 30.4777 10.0287 30.4688 10.0398L27.4577 13.7785C27.4527 13.7847 27.4527 13.7936 27.4576 13.7998L30.469 17.5688ZM39.2224 11.5717C39.2224 11.5556 39.2427 11.5485 39.2527 11.5611L46.3151 20.4605C46.3183 20.4645 46.3232 20.4669 46.3284 20.4669H49.89C49.9043 20.4669 49.9122 20.4504 49.9033 20.4393L39.2275 7.11775C39.2242 7.11373 39.2194 7.11139 39.2142 7.11139H36.5354C36.526 7.11139 36.5184 7.119 36.5184 7.12838V20.4499C36.5184 20.4593 36.526 20.4669 36.5354 20.4669H39.2054C39.2148 20.4669 39.2224 20.4593 39.2224 20.4499V11.5717ZM51.8015 20.4669C51.7921 20.4669 51.7845 20.4593 51.7845 20.4499V10.0291C51.7845 10.0197 51.7769 10.0121 51.7675 10.0121H46.0468C46.0416 10.0121 46.0367 10.0098 46.0335 10.0057L43.751 7.13896C43.7421 7.12783 43.75 7.11139 43.7642 7.11139H58.5441H58.6006H72.2818C72.296 7.11139 72.3039 7.12792 72.295 7.13904L69.9846 10.0058C69.9814 10.0098 69.9765 10.0121 69.9714 10.0121H65.5181C65.5087 10.0121 65.5011 10.0197 65.5011 10.0291V20.4499C65.5011 20.4593 65.4935 20.4669 65.4841 20.4669H62.8142C62.8048 20.4669 62.7972 20.4593 62.7972 20.4499V10.0291C62.7972 10.0197 62.7896 10.0121 62.7802 10.0121H58.6006H58.5441H54.4772C54.4678 10.0121 54.4602 10.0197 54.4602 10.0291V20.4499C54.4602 20.4593 54.4526 20.4669 54.4432 20.4669H51.8015ZM72.3343 20.4669C72.3249 20.4669 72.3173 20.4593 72.3173 20.4499V10.5317C72.3173 10.5279 72.3186 10.5242 72.3209 10.5212L74.9909 7.14966C75.0009 7.13704 75.0212 7.1441 75.0212 7.16021V17.5794C75.0212 17.5888 75.0288 17.5964 75.0382 17.5964H84.6933C84.7027 17.5964 84.7103 17.604 84.7103 17.6134V20.4499C84.7103 20.4593 84.7027 20.4669 84.6933 20.4669H72.3343ZM87.1777 17.5661C87.1683 17.5661 87.1607 17.5738 87.1607 17.5831V20.4499C87.1607 20.4593 87.1683 20.4669 87.1777 20.4669H97.9401C97.9452 20.4669 97.9501 20.4645 97.9534 20.4605L100.236 17.5937C100.245 17.5826 100.237 17.5661 100.223 17.5661H87.1777ZM87.1777 12.3388C87.1683 12.3388 87.1607 12.3464 87.1607 12.3558V15.2225C87.1607 15.2319 87.1683 15.2395 87.1777 15.2395H97.9401C97.9452 15.2395 97.9501 15.2372 97.9534 15.2331L100.236 12.3663C100.245 12.3552 100.237 12.3388 100.223 12.3388H87.1777ZM87.1777 7.11139C87.1683 7.11139 87.1607 7.119 87.1607 7.12838V9.99514C87.1607 10.0045 87.1683 10.0121 87.1777 10.0121H97.9401C97.9452 10.0121 97.9501 10.0098 97.9534 10.0057L100.236 7.13896C100.245 7.12783 100.237 7.11139 100.223 7.11139H87.1777ZM10.1069 36.9044C10.1017 36.9044 10.0969 36.9021 10.0936 36.8981L7.00422 33.0414C7.0018 33.0384 7.00049 33.0347 7.00049 33.0308V23.5357C7.00049 23.5263 7.00809 23.5187 7.01748 23.5187H9.68743C9.69681 23.5187 9.70442 23.5263 9.70442 23.5357V31.9128C9.70442 31.9167 9.70572 31.9204 9.70812 31.9234L11.3611 33.9973C11.3643 34.0013 11.3692 34.0037 11.3744 34.0037H16.7571C16.7665 34.0037 16.7741 33.9961 16.7741 33.9867V23.5357C16.7741 23.5263 16.7817 23.5187 16.7911 23.5187H19.4328C19.4422 23.5187 19.4498 23.5263 19.4498 23.5357V36.8875C19.4498 36.8968 19.4422 36.9044 19.4328 36.9044H10.1069ZM24.1649 36.9044C24.1743 36.9044 24.1819 36.8968 24.1819 36.8875V28.0692C24.1819 28.0532 24.2021 28.0461 24.2121 28.0586L31.3028 36.8981C31.306 36.9021 31.3109 36.9044 31.316 36.9044H34.0793C34.0887 36.9044 34.0963 36.8968 34.0963 36.8875V23.5357C34.0963 23.5263 34.0887 23.5187 34.0793 23.5187H31.4375C31.4281 23.5187 31.4205 23.5263 31.4205 23.5357V32.4749C31.4205 32.4909 31.4003 32.498 31.3903 32.4855L24.187 23.5251C24.1837 23.5211 24.1789 23.5187 24.1737 23.5187H21.5231C21.5137 23.5187 21.5061 23.5263 21.5061 23.5357V36.8875C21.5061 36.8968 21.5137 36.9044 21.5231 36.9044H24.1649ZM36.5184 23.5357C36.5184 23.5263 36.526 23.5187 36.5354 23.5187H39.2054C39.2148 23.5187 39.2224 23.5263 39.2224 23.5357V37.098C39.2224 37.1077 39.2142 37.1155 39.2044 37.115L36.5345 36.9658C36.5255 36.9653 36.5184 36.9578 36.5184 36.9488V23.5357ZM44.6634 23.5251C44.6602 23.5211 44.6553 23.5187 44.6502 23.5187H41.0885C41.0742 23.5187 41.0663 23.5352 41.0752 23.5463L51.7792 36.8981C51.7824 36.9021 51.7873 36.9044 51.7925 36.9044H54.4431C54.4525 36.9044 54.4601 36.8968 54.4601 36.8875V23.5357C54.4601 23.5263 54.4525 23.5187 54.4431 23.5187H51.8013C51.7919 23.5187 51.7843 23.5263 51.7843 23.5357V32.3539C51.7843 32.37 51.7641 32.3771 51.7541 32.3645L44.6634 23.5251ZM57.4347 36.9044C57.4253 36.9044 57.4177 36.8968 57.4177 36.8875V34.0207C57.4177 34.0113 57.4253 34.0037 57.4347 34.0037H70.4796C70.4939 34.0037 70.5018 34.0201 70.4929 34.0313L68.2104 36.898C68.2071 36.9021 68.2023 36.9044 68.1971 36.9044H57.4347ZM57.4347 31.6468C57.4253 31.6468 57.4177 31.6392 57.4177 31.6299V28.7631C57.4177 28.7537 57.4253 28.7461 57.4347 28.7461H70.4796C70.4939 28.7461 70.5018 28.7625 70.4929 28.7737L68.2104 31.6404C68.2071 31.6445 68.2023 31.6468 68.1971 31.6468H57.4347ZM57.4347 26.4195C57.4253 26.4195 57.4177 26.4119 57.4177 26.4025V23.5357C57.4177 23.5263 57.4253 23.5187 57.4347 23.5187H70.4796C70.4939 23.5187 70.5018 23.5352 70.4929 23.5463L68.2104 26.4131C68.2071 26.4171 68.2023 26.4195 68.1971 26.4195H57.4347ZM81.0978 26.4195C81.112 26.4195 81.1199 26.436 81.111 26.4471L77.283 31.2132C77.278 31.2194 77.278 31.2282 77.283 31.2345L81.8041 36.8981C81.8073 36.9021 81.8122 36.9044 81.8174 36.9044H85.379C85.3932 36.9044 85.4012 36.8879 85.3922 36.8768L80.8601 31.2345C80.8551 31.2282 80.8551 31.2194 80.8601 31.2132L84.7065 26.4241C84.709 26.4211 84.7103 26.4174 84.7103 26.4135V23.5357C84.7103 23.5263 84.7027 23.5187 84.6933 23.5187H72.2779C72.2685 23.5187 72.2609 23.5263 72.2609 23.5357V36.8875C72.2609 36.8968 72.2685 36.9044 72.2779 36.9044H74.9479C74.9573 36.9044 74.9649 36.8968 74.9649 36.8875V26.4365C74.9649 26.4271 74.9725 26.4195 74.9818 26.4195H81.0978ZM87.0932 36.9044C87.0838 36.9044 87.0762 36.8968 87.0762 36.8875V34.0207C87.0762 34.0113 87.0838 34.0037 87.0932 34.0037H95.1797C95.1849 34.0037 95.1898 34.0013 95.1931 33.9972L97.0252 31.6744C97.034 31.6632 97.0261 31.6468 97.0119 31.6468H87.0932C87.0838 31.6468 87.0762 31.6392 87.0762 31.6299V27.3923C87.0762 27.3885 87.0775 27.3847 87.0799 27.3817L90.1693 23.5251C90.1725 23.5211 90.1774 23.5187 90.1826 23.5187H99.5367C99.5461 23.5187 99.5537 23.5263 99.5537 23.5357V26.4025C99.5537 26.4119 99.5461 26.4195 99.5367 26.4195H91.4782C91.4731 26.4195 91.4682 26.4218 91.465 26.4258L89.605 28.7487C89.5961 28.7598 89.6041 28.7763 89.6183 28.7763H99.5367C99.5461 28.7763 99.5537 28.7839 99.5537 28.7933V33.0308C99.5537 33.0347 99.5524 33.0384 99.55 33.0414L96.4605 36.8981C96.4573 36.9021 96.4524 36.9044 96.4473 36.9044H87.0932ZM101.937 34.0037C101.927 34.0037 101.92 34.0113 101.92 34.0207V36.8875C101.92 36.8968 101.927 36.9044 101.937 36.9044H112.699C112.704 36.9044 112.709 36.9021 112.712 36.898L114.995 34.0313C115.004 34.0201 114.996 34.0037 114.982 34.0037H101.937ZM101.937 28.7461C101.927 28.7461 101.92 28.7537 101.92 28.7631V31.6299C101.92 31.6392 101.927 31.6468 101.937 31.6468H112.699C112.704 31.6468 112.709 31.6445 112.712 31.6404L114.995 28.7737C115.004 28.7625 114.996 28.7461 114.982 28.7461H101.937ZM101.937 23.5187C101.927 23.5187 101.92 23.5263 101.92 23.5357V26.4025C101.92 26.4119 101.927 26.4195 101.937 26.4195H112.699C112.704 26.4195 112.709 26.4171 112.712 26.4131L114.995 23.5463C115.004 23.5352 114.996 23.5187 114.982 23.5187H101.937Z" fill="white"/>
<path d="M114.995 23.5463L115.128 23.6521L114.995 23.5463ZM112.712 26.4131L112.58 26.3072L112.712 26.4131ZM114.995 28.7737L115.128 28.8795L114.995 28.7737ZM112.712 31.6404L112.58 31.5346L112.712 31.6404ZM114.995 34.0313L115.128 34.1371L114.995 34.0313ZM112.712 36.898L112.58 36.7922L112.712 36.898ZM96.4605 36.8981L96.3279 36.7919L96.4605 36.8981ZM99.55 33.0414L99.6825 33.1477L99.55 33.0414ZM89.605 28.7487L89.4724 28.6425L89.605 28.7487ZM91.465 26.4258L91.3324 26.3197L91.465 26.4258ZM90.1693 23.5251L90.3019 23.6313L90.1693 23.5251ZM87.0799 27.3817L86.9473 27.2755L87.0799 27.3817ZM97.0252 31.6744L97.1586 31.7796L97.0252 31.6744ZM95.1931 33.9972L95.0597 33.892L95.1931 33.9972ZM84.7065 26.4241L84.839 26.5305L84.7065 26.4241ZM77.283 31.2132L77.4154 31.3196L77.283 31.2132ZM77.283 31.2345L77.1502 31.3404L77.283 31.2345ZM68.2104 26.4131L68.3433 26.5189L68.2104 26.4131ZM70.4929 23.5463L70.36 23.4405L70.4929 23.5463ZM68.2104 31.6404L68.3433 31.7463L68.2104 31.6404ZM70.4929 28.7737L70.6258 28.8795L70.4929 28.7737ZM68.2104 36.898L68.3433 37.0039L68.2104 36.898ZM70.4929 34.0313L70.36 33.9255L70.4929 34.0313ZM51.7541 32.3645L51.8866 32.2583L51.7541 32.3645ZM51.7792 36.8981L51.9118 36.7918L51.7792 36.8981ZM44.6634 23.5251L44.5309 23.6314L44.6634 23.5251ZM41.0752 23.5463L41.2078 23.4401L41.0752 23.5463ZM36.5345 36.9658L36.525 37.1354L36.5345 36.9658ZM39.2044 37.115L39.2139 36.9453L39.2044 37.115ZM24.187 23.5251L24.3194 23.4186L24.187 23.5251ZM31.3903 32.4855L31.5227 32.3791L31.3903 32.4855ZM31.3028 36.8981L31.1702 37.0044L31.3028 36.8981ZM24.2121 28.0586L24.0796 28.1649L24.2121 28.0586ZM11.3611 33.9973L11.494 33.8914L11.3611 33.9973ZM9.70812 31.9234L9.57528 32.0293L9.70812 31.9234ZM10.0936 36.8981L9.96105 37.0043L10.0936 36.8981ZM7.00422 33.0414L6.87163 33.1477L7.00422 33.0414ZM100.236 7.13896L100.369 7.24478L100.236 7.13896ZM97.9534 10.0057L98.0863 10.1115L97.9534 10.0057ZM100.236 17.5937L100.369 17.6995L100.236 17.5937ZM97.9534 20.4605L97.8205 20.3547L97.9534 20.4605ZM74.9909 7.14966L75.1241 7.25513L74.9909 7.14966ZM72.3209 10.5212L72.1878 10.4157L72.3209 10.5212ZM69.9846 10.0058L70.1169 10.1124L69.9846 10.0058ZM72.295 7.13904L72.4273 7.24564L72.295 7.13904ZM43.751 7.13896L43.8839 7.03314L43.751 7.13896ZM46.0335 10.0057L45.9006 10.1115L46.0335 10.0057ZM39.2275 7.11775L39.0949 7.22399L39.2275 7.11775ZM49.9033 20.4393L50.0359 20.333L49.9033 20.4393ZM39.2527 11.5611L39.1196 11.6667L39.2527 11.5611ZM46.3151 20.4605L46.4482 20.3549L46.3151 20.4605ZM27.4577 13.7785L27.59 13.8851L27.4577 13.7785ZM27.4576 13.7998L27.3249 13.9058L27.4576 13.7998ZM30.4688 10.0398L30.6011 10.1463L30.4688 10.0398ZM30.469 17.5688L30.6017 17.4627L30.469 17.5688ZM34.0925 10.0168L34.2248 10.1234L34.0925 10.0168ZM31.0629 13.7998L31.1956 13.6937L31.0629 13.7998ZM31.0629 13.7785L31.1952 13.8851L31.0629 13.7785ZM80.8601 31.2345L80.7276 31.3408L80.8601 31.2345ZM80.8601 31.2132L80.7276 31.1068L80.8601 31.2132ZM34.0926 17.5917L34.2253 17.4857L34.0926 17.5917ZM85.3922 36.8768L85.2598 36.9832L85.3922 36.8768ZM100.236 12.3663L100.369 12.4722L100.236 12.3663ZM81.8041 36.8981L81.6713 37.004L81.8041 36.8981ZM97.9534 15.2331L98.0863 15.3389L97.9534 15.2331ZM81.111 26.4471L80.9786 26.3407L81.111 26.4471ZM21.676 20.4669V7.12838H21.3362V20.4669H21.676ZM21.676 20.4801V20.4669H21.3362V20.4801H21.676ZM34.0793 20.3272H21.5231V20.667H34.0793V20.3272ZM33.9264 17.6023V20.4801H34.2662V17.6023H33.9264ZM30.9301 13.9058L33.9598 17.6978L34.2253 17.4857L31.1956 13.6937L30.9301 13.9058ZM33.9602 9.91024L30.9306 13.672L31.1952 13.8851L34.2248 10.1234L33.9602 9.91024ZM33.9264 7.12838V10.0061H34.2662V7.12838H33.9264ZM21.5231 7.28127H34.0793V6.94151H21.5231V7.28127ZM24.1989 17.7662H30.4557V17.4265H24.1989V17.7662ZM24.012 10.0291V17.5794H24.3518V10.0291H24.012ZM30.4555 9.84225H24.1989V10.182H30.4555V9.84225ZM27.59 13.8851L30.6011 10.1463L30.3365 9.93322L27.3254 13.672L27.59 13.8851ZM30.6017 17.4627L27.5903 13.6937L27.3249 13.9058L30.3363 17.6748L30.6017 17.4627ZM46.4482 20.3549L39.3857 11.4555L39.1196 11.6667L46.182 20.5661L46.4482 20.3549ZM49.89 20.297H46.3284V20.6368H49.89V20.297ZM39.0949 7.22399L49.7707 20.5455L50.0359 20.333L39.36 7.01152L39.0949 7.22399ZM36.5354 7.28127H39.2142V6.94151H36.5354V7.28127ZM36.6883 20.4499V7.12838H36.3485V20.4499H36.6883ZM39.2054 20.297H36.5354V20.6368H39.2054V20.297ZM39.0525 11.5717V20.4499H39.3922V11.5717H39.0525ZM51.6146 10.0291V20.4499H51.9543V10.0291H51.6146ZM46.0468 10.182H51.7675V9.84225H46.0468V10.182ZM43.6181 7.24478L45.9006 10.1115L46.1664 9.89991L43.8839 7.03314L43.6181 7.24478ZM58.5441 6.94151H43.7642V7.28127H58.5441V6.94151ZM58.6006 6.94151H58.5441V7.28127H58.6006V6.94151ZM72.2818 6.94151H58.6006V7.28127H72.2818V6.94151ZM70.1169 10.1124L72.4273 7.24564L72.1627 7.03244L69.8523 9.8992L70.1169 10.1124ZM65.5181 10.182H69.9714V9.84225H65.5181V10.182ZM65.671 20.4499V10.0291H65.3312V20.4499H65.671ZM62.8142 20.6368H65.4841V20.297H62.8142V20.6368ZM62.6273 10.0291V20.4499H62.9671V10.0291H62.6273ZM58.6006 10.182H62.7802V9.84225H58.6006V10.182ZM58.5441 10.182H58.6006V9.84225H58.5441V10.182ZM54.4772 10.182H58.5441V9.84225H54.4772V10.182ZM54.6301 20.4499V10.0291H54.2903V20.4499H54.6301ZM51.8015 20.6368H54.4432V20.297H51.8015V20.6368ZM72.1474 10.5317V20.4499H72.4871V10.5317H72.1474ZM74.8577 7.04419L72.1878 10.4157L72.4541 10.6266L75.1241 7.25513L74.8577 7.04419ZM75.1911 17.5794V7.16021H74.8513V17.5794H75.1911ZM84.6933 17.4265H75.0382V17.7662H84.6933V17.4265ZM84.8802 20.4499V17.6134H84.5404V20.4499H84.8802ZM72.3343 20.6368H84.6933V20.297H72.3343V20.6368ZM87.3306 20.4499V17.5831H86.9908V20.4499H87.3306ZM97.9401 20.297H87.1777V20.6368H97.9401V20.297ZM100.103 17.4879L97.8205 20.3547L98.0863 20.5663L100.369 17.6995L100.103 17.4879ZM87.1777 17.736H100.223V17.3963H87.1777V17.736ZM87.3306 15.2225V12.3558H86.9908V15.2225H87.3306ZM97.9401 15.0696H87.1777V15.4094H97.9401V15.0696ZM100.103 12.2605L97.8205 15.1273L98.0863 15.3389L100.369 12.4722L100.103 12.2605ZM87.1777 12.5087H100.223V12.1689H87.1777V12.5087ZM87.3306 9.99514V7.12838H86.9908V9.99514H87.3306ZM97.9401 9.84225H87.1777V10.182H97.9401V9.84225ZM100.103 7.03314L97.8205 9.89991L98.0863 10.1115L100.369 7.24478L100.103 7.03314ZM87.1777 7.28127H100.223V6.94151H87.1777V7.28127ZM6.87163 33.1477L9.96105 37.0043L10.2262 36.7919L7.13681 32.9352L6.87163 33.1477ZM6.83061 23.5357V33.0308H7.17037V23.5357H6.83061ZM9.68743 23.3488H7.01748V23.6886H9.68743V23.3488ZM9.8743 31.9128V23.5357H9.53454V31.9128H9.8743ZM11.494 33.8914L9.84097 31.8176L9.57528 32.0293L11.2283 34.1032L11.494 33.8914ZM16.7571 33.8338H11.3744V34.1736H16.7571V33.8338ZM16.6042 23.5357V33.9867H16.944V23.5357H16.6042ZM19.4328 23.3488H16.7911V23.6886H19.4328V23.3488ZM19.6197 36.8875V23.5357H19.28V36.8875H19.6197ZM10.1069 37.0743H19.4328V36.7346H10.1069V37.0743ZM24.012 28.0692V36.8875H24.3518V28.0692H24.012ZM31.4353 36.7918L24.3446 27.9523L24.0796 28.1649L31.1702 37.0044L31.4353 36.7918ZM34.0793 36.7346H31.316V37.0743H34.0793V36.7346ZM33.9264 23.5357V36.8875H34.2662V23.5357H33.9264ZM31.4375 23.6886H34.0793V23.3488H31.4375V23.6886ZM31.5904 32.4749V23.5357H31.2506V32.4749H31.5904ZM24.0546 23.6315L31.2579 32.592L31.5227 32.3791L24.3194 23.4186L24.0546 23.6315ZM21.5231 23.6886H24.1737V23.3488H21.5231V23.6886ZM21.676 36.8875V23.5357H21.3362V36.8875H21.676ZM24.1649 36.7346H21.5231V37.0743H24.1649V36.7346ZM39.2054 23.3488H36.5354V23.6886H39.2054V23.3488ZM39.3922 37.098V23.5357H39.0525V37.098H39.3922ZM36.525 37.1354L39.1949 37.2846L39.2139 36.9453L36.544 36.7962L36.525 37.1354ZM36.3485 23.5357V36.9488H36.6883V23.5357H36.3485ZM41.0885 23.6886H44.6502V23.3488H41.0885V23.6886ZM51.9118 36.7918L41.2078 23.4401L40.9427 23.6526L51.6467 37.0043L51.9118 36.7918ZM54.4431 36.7346H51.7925V37.0743H54.4431V36.7346ZM54.2902 23.5357V36.8875H54.63V23.5357H54.2902ZM51.8013 23.6886H54.4431V23.3488H51.8013V23.6886ZM51.9542 32.3539V23.5357H51.6144V32.3539H51.9542ZM44.5309 23.6314L51.6216 32.4708L51.8866 32.2583L44.796 23.4188L44.5309 23.6314ZM57.2478 34.0207V36.8875H57.5876V34.0207H57.2478ZM70.4796 33.8338H57.4347V34.1736H70.4796V33.8338ZM68.3433 37.0039L70.6258 34.1371L70.36 33.9255L68.0775 36.7922L68.3433 37.0039ZM57.4347 37.0743H68.1971V36.7346H57.4347V37.0743ZM57.2478 28.7631V31.6299H57.5876V28.7631H57.2478ZM70.4796 28.5762H57.4347V28.916H70.4796V28.5762ZM68.3433 31.7463L70.6258 28.8795L70.36 28.6679L68.0775 31.5346L68.3433 31.7463ZM57.4347 31.8167H68.1971V31.477H57.4347V31.8167ZM57.2478 23.5357V26.4025H57.5876V23.5357H57.2478ZM70.4796 23.3488H57.4347V23.6886H70.4796V23.3488ZM68.3433 26.5189L70.6258 23.6521L70.36 23.4405L68.0775 26.3072L68.3433 26.5189ZM57.4347 26.5893H68.1971V26.2496H57.4347V26.5893ZM77.4154 31.3196L81.2435 26.5535L80.9786 26.3407L77.1505 31.1068L77.4154 31.3196ZM81.9369 36.7921L77.4157 31.1285L77.1502 31.3404L81.6713 37.004L81.9369 36.7921ZM85.379 36.7346H81.8174V37.0743H85.379V36.7346ZM80.7276 31.3408L85.2598 36.9832L85.5247 36.7704L80.9925 31.1281L80.7276 31.3408ZM84.5741 26.3177L80.7276 31.1068L80.9925 31.3196L84.839 26.5305L84.5741 26.3177ZM84.5404 23.5357V26.4135H84.8802V23.5357H84.5404ZM72.2779 23.6886H84.6933V23.3488H72.2779V23.6886ZM72.4308 36.8875V23.5357H72.091V36.8875H72.4308ZM74.9479 36.7346H72.2779V37.0743H74.9479V36.7346ZM74.795 26.4365V36.8875H75.1347V26.4365H74.795ZM81.0978 26.2496H74.9818V26.5893H81.0978V26.2496ZM86.9063 34.0207V36.8875H87.2461V34.0207H86.9063ZM95.1797 33.8338H87.0932V34.1736H95.1797V33.8338ZM96.8918 31.5691L95.0597 33.892L95.3265 34.1024L97.1586 31.7796L96.8918 31.5691ZM87.0932 31.8167H97.0119V31.477H87.0932V31.8167ZM86.9063 27.3923V31.6299H87.2461V27.3923H86.9063ZM90.0367 23.4189L86.9473 27.2755L87.2125 27.4879L90.3019 23.6313L90.0367 23.4189ZM99.5367 23.3488H90.1826V23.6886H99.5367V23.3488ZM99.7236 26.4025V23.5357H99.3838V26.4025H99.7236ZM91.4782 26.5893H99.5367V26.2496H91.4782V26.5893ZM89.7377 28.8549L91.5976 26.532L91.3324 26.3197L89.4724 28.6425L89.7377 28.8549ZM99.5367 28.6064H89.6183V28.9462H99.5367V28.6064ZM99.7236 33.0308V28.7933H99.3838V33.0308H99.7236ZM96.5931 37.0043L99.6825 33.1477L99.4174 32.9352L96.3279 36.7919L96.5931 37.0043ZM87.0932 37.0743H96.4473V36.7346H87.0932V37.0743ZM102.09 36.8875V34.0207H101.75V36.8875H102.09ZM112.699 36.7346H101.937V37.0743H112.699V36.7346ZM114.862 33.9255L112.58 36.7922L112.845 37.0039L115.128 34.1371L114.862 33.9255ZM101.937 34.1736H114.982V33.8338H101.937V34.1736ZM102.09 31.6299V28.7631H101.75V31.6299H102.09ZM112.699 31.477H101.937V31.8167H112.699V31.477ZM114.862 28.6679L112.58 31.5346L112.845 31.7463L115.128 28.8795L114.862 28.6679ZM101.937 28.916H114.982V28.5762H101.937V28.916ZM102.09 26.4025V23.5357H101.75V26.4025H102.09ZM112.699 26.2496H101.937V26.5893H112.699V26.2496ZM114.862 23.4405L112.58 26.3072L112.845 26.5189L115.128 23.6521L114.862 23.4405ZM101.937 23.6886H114.982V23.3488H101.937V23.6886ZM115.128 23.6521C115.225 23.5297 115.138 23.3488 114.982 23.3488V23.6886C114.854 23.6886 114.782 23.5406 114.862 23.4405L115.128 23.6521ZM112.699 26.5893C112.756 26.5893 112.81 26.5634 112.845 26.5189L112.58 26.3072C112.609 26.2708 112.653 26.2496 112.699 26.2496V26.5893ZM102.09 23.5357C102.09 23.6202 102.021 23.6886 101.937 23.6886V23.3488C101.834 23.3488 101.75 23.4325 101.75 23.5357H102.09ZM101.75 26.4025C101.75 26.5057 101.834 26.5893 101.937 26.5893V26.2496C102.021 26.2496 102.09 26.318 102.09 26.4025H101.75ZM115.128 28.8795C115.225 28.7571 115.138 28.5762 114.982 28.5762V28.916C114.854 28.916 114.782 28.768 114.862 28.6679L115.128 28.8795ZM112.699 31.8167C112.756 31.8167 112.81 31.7908 112.845 31.7463L112.58 31.5346C112.609 31.4982 112.653 31.477 112.699 31.477V31.8167ZM102.09 28.7631C102.09 28.8475 102.021 28.916 101.937 28.916V28.5762C101.834 28.5762 101.75 28.6599 101.75 28.7631H102.09ZM101.75 31.6299C101.75 31.7331 101.834 31.8167 101.937 31.8167V31.477C102.021 31.477 102.09 31.5454 102.09 31.6299H101.75ZM115.128 34.1371C115.225 34.0147 115.138 33.8338 114.982 33.8338V34.1736C114.854 34.1736 114.782 34.0256 114.862 33.9255L115.128 34.1371ZM112.699 37.0743C112.756 37.0743 112.81 37.0484 112.845 37.0039L112.58 36.7922C112.609 36.7558 112.653 36.7346 112.699 36.7346V37.0743ZM102.09 34.0207C102.09 34.1051 102.021 34.1736 101.937 34.1736V33.8338C101.834 33.8338 101.75 33.9175 101.75 34.0207H102.09ZM101.75 36.8875C101.75 36.9907 101.834 37.0743 101.937 37.0743V36.7346C102.021 36.7346 102.09 36.803 102.09 36.8875H101.75ZM96.3279 36.7919C96.357 36.7556 96.4009 36.7346 96.4473 36.7346V37.0743C96.504 37.0743 96.5577 37.0486 96.5931 37.0043L96.3279 36.7919ZM99.3838 33.0308C99.3838 32.9961 99.3956 32.9624 99.4174 32.9352L99.6825 33.1477C99.7091 33.1145 99.7236 33.0733 99.7236 33.0308H99.3838ZM99.5367 28.9462C99.4523 28.9462 99.3838 28.8777 99.3838 28.7933H99.7236C99.7236 28.6901 99.6399 28.6064 99.5367 28.6064V28.9462ZM89.4724 28.6425C89.3745 28.7649 89.4616 28.9462 89.6183 28.9462V28.6064C89.7466 28.6064 89.8178 28.7548 89.7377 28.8549L89.4724 28.6425ZM91.4782 26.2496C91.4215 26.2496 91.3678 26.2754 91.3324 26.3197L91.5976 26.532C91.5686 26.5683 91.5247 26.5893 91.4782 26.5893V26.2496ZM99.3838 26.4025C99.3838 26.318 99.4523 26.2496 99.5367 26.2496V26.5893C99.6399 26.5893 99.7236 26.5057 99.7236 26.4025H99.3838ZM99.5367 23.6886C99.4523 23.6886 99.3838 23.6202 99.3838 23.5357H99.7236C99.7236 23.4325 99.6399 23.3488 99.5367 23.3488V23.6886ZM90.3019 23.6313C90.2729 23.6675 90.229 23.6886 90.1826 23.6886V23.3488C90.1258 23.3488 90.0722 23.3746 90.0367 23.4189L90.3019 23.6313ZM87.2461 27.3923C87.2461 27.4271 87.2342 27.4608 87.2125 27.4879L86.9473 27.2755C86.9208 27.3087 86.9063 27.3499 86.9063 27.3923H87.2461ZM87.0932 31.477C87.1776 31.477 87.2461 31.5454 87.2461 31.6299H86.9063C86.9063 31.7331 86.99 31.8167 87.0932 31.8167V31.477ZM97.1586 31.7796C97.2553 31.657 97.168 31.477 97.0119 31.477V31.8167C96.8842 31.8167 96.8128 31.6694 96.8918 31.5691L97.1586 31.7796ZM95.1797 34.1736C95.237 34.1736 95.291 34.1474 95.3265 34.1024L95.0597 33.892C95.0887 33.8553 95.1329 33.8338 95.1797 33.8338V34.1736ZM86.9063 36.8875C86.9063 36.9907 86.99 37.0743 87.0932 37.0743V36.7346C87.1776 36.7346 87.2461 36.803 87.2461 36.8875H86.9063ZM87.2461 34.0207C87.2461 34.1051 87.1776 34.1736 87.0932 34.1736V33.8338C86.99 33.8338 86.9063 33.9175 86.9063 34.0207H87.2461ZM75.1347 26.4365C75.1347 26.5209 75.0663 26.5893 74.9818 26.5893V26.2496C74.8786 26.2496 74.795 26.3333 74.795 26.4365H75.1347ZM74.9479 37.0743C75.0511 37.0743 75.1347 36.9907 75.1347 36.8875H74.795C74.795 36.803 74.8634 36.7346 74.9479 36.7346V37.0743ZM72.091 36.8875C72.091 36.9907 72.1747 37.0743 72.2779 37.0743V36.7346C72.3624 36.7346 72.4308 36.803 72.4308 36.8875H72.091ZM72.2779 23.3488C72.1747 23.3488 72.091 23.4325 72.091 23.5357H72.4308C72.4308 23.6201 72.3624 23.6886 72.2779 23.6886V23.3488ZM84.8802 23.5357C84.8802 23.4325 84.7965 23.3488 84.6933 23.3488V23.6886C84.6088 23.6886 84.5404 23.6202 84.5404 23.5357H84.8802ZM84.839 26.5305C84.8656 26.4973 84.8802 26.456 84.8802 26.4135H84.5404C84.5404 26.3787 84.5523 26.3449 84.5741 26.3177L84.839 26.5305ZM77.1505 31.1068C77.0958 31.175 77.0956 31.2721 77.1502 31.3404L77.4157 31.1285C77.4604 31.1844 77.4602 31.2638 77.4154 31.3196L77.1505 31.1068ZM68.0775 26.3072C68.1065 26.2708 68.1505 26.2496 68.1971 26.2496V26.5893C68.254 26.5893 68.3078 26.5634 68.3433 26.5189L68.0775 26.3072ZM70.4796 23.6886C70.3516 23.6886 70.2803 23.5406 70.36 23.4405L70.6258 23.6521C70.7233 23.5297 70.6361 23.3488 70.4796 23.3488V23.6886ZM57.2478 26.4025C57.2478 26.5057 57.3315 26.5893 57.4347 26.5893V26.2496C57.5192 26.2496 57.5876 26.318 57.5876 26.4025H57.2478ZM57.5876 23.5357C57.5876 23.6202 57.5191 23.6886 57.4347 23.6886V23.3488C57.3315 23.3488 57.2478 23.4325 57.2478 23.5357H57.5876ZM68.0775 31.5346C68.1065 31.4982 68.1505 31.477 68.1971 31.477V31.8167C68.254 31.8167 68.3078 31.7908 68.3433 31.7463L68.0775 31.5346ZM70.4796 28.916C70.3516 28.916 70.2803 28.768 70.36 28.6679L70.6258 28.8795C70.7233 28.7571 70.6361 28.5762 70.4796 28.5762V28.916ZM57.2478 31.6299C57.2478 31.7331 57.3315 31.8167 57.4347 31.8167V31.477C57.5192 31.477 57.5876 31.5454 57.5876 31.6299H57.2478ZM57.5876 28.7631C57.5876 28.8475 57.5191 28.916 57.4347 28.916V28.5762C57.3315 28.5762 57.2478 28.6599 57.2478 28.7631H57.5876ZM68.0775 36.7922C68.1065 36.7558 68.1505 36.7346 68.1971 36.7346V37.0743C68.254 37.0743 68.3078 37.0484 68.3433 37.0039L68.0775 36.7922ZM70.4796 34.1736C70.3516 34.1736 70.2803 34.0256 70.36 33.9255L70.6258 34.1371C70.7233 34.0147 70.6361 33.8338 70.4796 33.8338V34.1736ZM57.2478 36.8875C57.2478 36.9907 57.3315 37.0743 57.4347 37.0743V36.7346C57.5192 36.7346 57.5876 36.803 57.5876 36.8875H57.2478ZM57.5876 34.0207C57.5876 34.1051 57.5191 34.1736 57.4347 34.1736V33.8338C57.3315 33.8338 57.2478 33.9175 57.2478 34.0207H57.5876ZM51.6144 32.3539C51.6144 32.2095 51.7962 32.1456 51.8866 32.2583L51.6216 32.4708C51.732 32.6085 51.9542 32.5304 51.9542 32.3539H51.6144ZM51.8013 23.3488C51.6981 23.3488 51.6144 23.4325 51.6144 23.5357H51.9542C51.9542 23.6201 51.8858 23.6886 51.8013 23.6886V23.3488ZM54.63 23.5357C54.63 23.4325 54.5463 23.3488 54.4431 23.3488V23.6886C54.3587 23.6886 54.2902 23.6202 54.2902 23.5357H54.63ZM54.4431 37.0743C54.5463 37.0743 54.63 36.9907 54.63 36.8875H54.2902C54.2902 36.803 54.3587 36.7346 54.4431 36.7346V37.0743ZM51.6467 37.0043C51.6821 37.0486 51.7358 37.0743 51.7925 37.0743V36.7346C51.8389 36.7346 51.8828 36.7556 51.9118 36.7918L51.6467 37.0043ZM44.6502 23.6886C44.6038 23.6886 44.5599 23.6676 44.5309 23.6314L44.796 23.4188C44.7605 23.3746 44.7069 23.3488 44.6502 23.3488V23.6886ZM41.0885 23.3488C40.9317 23.3488 40.8446 23.5303 40.9427 23.6526L41.2078 23.4401C41.288 23.5402 41.2168 23.6886 41.0885 23.6886V23.3488ZM36.544 36.7962C36.625 36.8007 36.6883 36.8677 36.6883 36.9488H36.3485C36.3485 37.048 36.426 37.1299 36.525 37.1354L36.544 36.7962ZM39.0525 37.098C39.0525 37.0102 39.1262 36.9404 39.2139 36.9453L39.1949 37.2846C39.3021 37.2906 39.3922 37.2053 39.3922 37.098H39.0525ZM36.5354 23.3488C36.4322 23.3488 36.3485 23.4325 36.3485 23.5357H36.6883C36.6883 23.6202 36.6199 23.6886 36.5354 23.6886V23.3488ZM39.2054 23.6886C39.1209 23.6886 39.0525 23.6201 39.0525 23.5357H39.3922C39.3922 23.4325 39.3086 23.3488 39.2054 23.3488V23.6886ZM21.3362 36.8875C21.3362 36.9907 21.4199 37.0743 21.5231 37.0743V36.7346C21.6075 36.7346 21.676 36.803 21.676 36.8875H21.3362ZM21.5231 23.3488C21.4199 23.3488 21.3362 23.4325 21.3362 23.5357H21.676C21.676 23.6201 21.6075 23.6886 21.5231 23.6886V23.3488ZM24.3194 23.4186C24.2839 23.3745 24.2303 23.3488 24.1737 23.3488V23.6886C24.1274 23.6886 24.0836 23.6676 24.0546 23.6315L24.3194 23.4186ZM31.2506 32.4749C31.2506 32.3305 31.4323 32.2666 31.5227 32.3791L31.2579 32.592C31.3684 32.7295 31.5904 32.6513 31.5904 32.4749H31.2506ZM31.4375 23.3488C31.3343 23.3488 31.2506 23.4325 31.2506 23.5357H31.5904C31.5904 23.6201 31.522 23.6886 31.4375 23.6886V23.3488ZM34.2662 23.5357C34.2662 23.4325 34.1825 23.3488 34.0793 23.3488V23.6886C33.9949 23.6886 33.9264 23.6202 33.9264 23.5357H34.2662ZM34.0793 37.0743C34.1825 37.0743 34.2662 36.9907 34.2662 36.8875H33.9264C33.9264 36.803 33.9948 36.7346 34.0793 36.7346V37.0743ZM31.1702 37.0044C31.2057 37.0486 31.2593 37.0743 31.316 37.0743V36.7346C31.3624 36.7346 31.4063 36.7556 31.4353 36.7918L31.1702 37.0044ZM24.012 36.8875C24.012 36.803 24.0804 36.7346 24.1649 36.7346V37.0743C24.2681 37.0743 24.3518 36.9907 24.3518 36.8875H24.012ZM24.3518 28.0692C24.3518 28.2137 24.17 28.2776 24.0796 28.1649L24.3446 27.9523C24.2342 27.8146 24.012 27.8927 24.012 28.0692H24.3518ZM19.28 36.8875C19.28 36.803 19.3484 36.7346 19.4328 36.7346V37.0743C19.5361 37.0743 19.6197 36.9907 19.6197 36.8875H19.28ZM19.4328 23.6886C19.3484 23.6886 19.28 23.6201 19.28 23.5357H19.6197C19.6197 23.4325 19.5361 23.3488 19.4328 23.3488V23.6886ZM16.944 23.5357C16.944 23.6202 16.8755 23.6886 16.7911 23.6886V23.3488C16.6879 23.3488 16.6042 23.4325 16.6042 23.5357H16.944ZM16.7571 34.1736C16.8603 34.1736 16.944 34.0899 16.944 33.9867H16.6042C16.6042 33.9023 16.6726 33.8338 16.7571 33.8338V34.1736ZM11.2283 34.1032C11.2637 34.1477 11.3175 34.1736 11.3744 34.1736V33.8338C11.4209 33.8338 11.4649 33.855 11.494 33.8914L11.2283 34.1032ZM9.53454 31.9128C9.53454 31.9552 9.5489 31.9962 9.57528 32.0293L9.84097 31.8176C9.86255 31.8446 9.8743 31.8782 9.8743 31.9128H9.53454ZM9.68743 23.6886C9.60298 23.6886 9.53454 23.6201 9.53454 23.5357H9.8743C9.8743 23.4325 9.79064 23.3488 9.68743 23.3488V23.6886ZM7.17037 23.5357C7.17037 23.6202 7.10192 23.6886 7.01748 23.6886V23.3488C6.91427 23.3488 6.83061 23.4325 6.83061 23.5357H7.17037ZM9.96105 37.0043C9.99652 37.0486 10.0502 37.0743 10.1069 37.0743V36.7346C10.1533 36.7346 10.1972 36.7556 10.2262 36.7919L9.96105 37.0043ZM7.13681 32.9352C7.15853 32.9624 7.17037 32.9961 7.17037 33.0308H6.83061C6.83061 33.0733 6.84508 33.1145 6.87163 33.1477L7.13681 32.9352ZM100.369 7.24478C100.466 7.12235 100.379 6.94151 100.223 6.94151V7.28127C100.095 7.28127 100.023 7.13331 100.103 7.03314L100.369 7.24478ZM97.9401 10.182C97.997 10.182 98.0508 10.1561 98.0863 10.1115L97.8205 9.89991C97.8495 9.86347 97.8935 9.84225 97.9401 9.84225V10.182ZM87.3306 12.3558C87.3306 12.4402 87.2621 12.5087 87.1777 12.5087V12.1689C87.0745 12.1689 86.9908 12.2525 86.9908 12.3558H87.3306ZM86.9908 15.2225C86.9908 15.3257 87.0745 15.4094 87.1777 15.4094V15.0696C87.2621 15.0696 87.3306 15.1381 87.3306 15.2225H86.9908ZM100.369 17.6995C100.466 17.5771 100.379 17.3963 100.223 17.3963V17.736C100.095 17.736 100.023 17.5881 100.103 17.4879L100.369 17.6995ZM97.9401 20.6368C97.997 20.6368 98.0508 20.6108 98.0863 20.5663L97.8205 20.3547C97.8495 20.3182 97.8935 20.297 97.9401 20.297V20.6368ZM87.3306 17.5831C87.3306 17.6676 87.2621 17.736 87.1777 17.736V17.3963C87.0745 17.3963 86.9908 17.4799 86.9908 17.5831H87.3306ZM86.9908 20.4499C86.9908 20.5531 87.0745 20.6368 87.1777 20.6368V20.297C87.2621 20.297 87.3306 20.3655 87.3306 20.4499H86.9908ZM84.5404 20.4499C84.5404 20.3655 84.6089 20.297 84.6933 20.297V20.6368C84.7965 20.6368 84.8802 20.5531 84.8802 20.4499H84.5404ZM84.6933 17.7662C84.6089 17.7662 84.5404 17.6978 84.5404 17.6134H84.8802C84.8802 17.5101 84.7965 17.4265 84.6933 17.4265V17.7662ZM74.8513 17.5794C74.8513 17.6826 74.935 17.7662 75.0382 17.7662V17.4265C75.1226 17.4265 75.1911 17.4949 75.1911 17.5794H74.8513ZM75.1241 7.25513C75.0341 7.36873 74.8513 7.30511 74.8513 7.16021H75.1911C75.1911 6.9831 74.9677 6.90535 74.8577 7.04419L75.1241 7.25513ZM72.1474 20.4499C72.1474 20.5531 72.231 20.6368 72.3343 20.6368V20.297C72.4187 20.297 72.4871 20.3655 72.4871 20.4499H72.1474ZM72.4871 10.5317C72.4871 10.5662 72.4755 10.5996 72.4541 10.6266L72.1878 10.4157C72.1616 10.4487 72.1474 10.4896 72.1474 10.5317H72.4871ZM54.2903 20.4499C54.2903 20.3655 54.3588 20.297 54.4432 20.297V20.6368C54.5464 20.6368 54.6301 20.5531 54.6301 20.4499H54.2903ZM54.4772 9.84225C54.374 9.84225 54.2903 9.92592 54.2903 10.0291H54.6301C54.6301 10.1136 54.5617 10.182 54.4772 10.182V9.84225ZM62.9671 10.0291C62.9671 9.92591 62.8834 9.84225 62.7802 9.84225V10.182C62.6958 10.182 62.6273 10.1136 62.6273 10.0291H62.9671ZM62.8142 20.297C62.8986 20.297 62.9671 20.3655 62.9671 20.4499H62.6273C62.6273 20.5531 62.711 20.6368 62.8142 20.6368V20.297ZM65.3312 20.4499C65.3312 20.3655 65.3997 20.297 65.4841 20.297V20.6368C65.5873 20.6368 65.671 20.5531 65.671 20.4499H65.3312ZM65.5181 9.84225C65.4149 9.84225 65.3312 9.92592 65.3312 10.0291H65.671C65.671 10.1136 65.6026 10.182 65.5181 10.182V9.84225ZM69.8523 9.8992C69.8814 9.86319 69.9251 9.84225 69.9714 9.84225V10.182C70.0279 10.182 70.0814 10.1564 70.1169 10.1124L69.8523 9.8992ZM72.2818 7.28127C72.1533 7.28127 72.0821 7.13246 72.1627 7.03244L72.4273 7.24564C72.5258 7.12339 72.4388 6.94151 72.2818 6.94151V7.28127ZM43.8839 7.03314C43.9636 7.13332 43.8923 7.28127 43.7642 7.28127V6.94151C43.6078 6.94151 43.5206 7.12234 43.6181 7.24478L43.8839 7.03314ZM46.0468 9.84225C46.0934 9.84225 46.1374 9.86347 46.1664 9.89991L45.9006 10.1115C45.9361 10.1561 45.9899 10.182 46.0468 10.182V9.84225ZM51.6146 20.4499C51.6146 20.5531 51.6982 20.6368 51.8015 20.6368V20.297C51.8859 20.297 51.9543 20.3655 51.9543 20.4499H51.6146ZM51.9543 10.0291C51.9543 9.92591 51.8707 9.84225 51.7675 9.84225V10.182C51.683 10.182 51.6146 10.1136 51.6146 10.0291H51.9543ZM39.2054 20.6368C39.3086 20.6368 39.3922 20.5531 39.3922 20.4499H39.0525C39.0525 20.3655 39.1209 20.297 39.2054 20.297V20.6368ZM36.3485 20.4499C36.3485 20.5531 36.4322 20.6368 36.5354 20.6368V20.297C36.6199 20.297 36.6883 20.3655 36.6883 20.4499H36.3485ZM36.5354 6.94151C36.4322 6.94151 36.3485 7.02517 36.3485 7.12838H36.6883C36.6883 7.21282 36.6199 7.28127 36.5354 7.28127V6.94151ZM39.36 7.01152C39.3246 6.96726 39.2709 6.94151 39.2142 6.94151V7.28127C39.1678 7.28127 39.1239 7.2602 39.0949 7.22399L39.36 7.01152ZM49.89 20.6368C50.0468 20.6368 50.1339 20.4554 50.0359 20.333L49.7707 20.5455C49.6905 20.4454 49.7618 20.297 49.89 20.297V20.6368ZM39.3857 11.4555C39.2757 11.3169 39.0525 11.3947 39.0525 11.5717H39.3922C39.3922 11.7165 39.2096 11.7802 39.1196 11.6667L39.3857 11.4555ZM46.182 20.5661C46.2175 20.6107 46.2714 20.6368 46.3284 20.6368V20.297C46.375 20.297 46.4191 20.3183 46.4482 20.3549L46.182 20.5661ZM27.3254 13.672C27.2704 13.7402 27.2702 13.8374 27.3249 13.9058L27.5903 13.6937C27.6351 13.7497 27.6349 13.8293 27.59 13.8851L27.3254 13.672ZM30.4555 10.182C30.3271 10.182 30.2559 10.0332 30.3365 9.93322L30.6011 10.1463C30.6996 10.0241 30.6125 9.84225 30.4555 9.84225V10.182ZM24.3518 10.0291C24.3518 10.1136 24.2833 10.182 24.1989 10.182V9.84225C24.0957 9.84225 24.012 9.92591 24.012 10.0291H24.3518ZM30.4557 17.7662C30.6124 17.7662 30.6995 17.5851 30.6017 17.4627L30.3363 17.6748C30.2563 17.5747 30.3276 17.4265 30.4557 17.4265V17.7662ZM24.1989 17.4265C24.2833 17.4265 24.3518 17.4949 24.3518 17.5794H24.012C24.012 17.6826 24.0957 17.7662 24.1989 17.7662V17.4265ZM34.2662 7.12838C34.2662 7.02516 34.1825 6.94151 34.0793 6.94151V7.28127C33.9949 7.28127 33.9264 7.21283 33.9264 7.12838H34.2662ZM34.2248 10.1234C34.2516 10.0901 34.2662 10.0488 34.2662 10.0061H33.9264C33.9264 9.97125 33.9383 9.93741 33.9602 9.91024L34.2248 10.1234ZM31.1956 13.6937C31.2403 13.7497 31.2402 13.8293 31.1952 13.8851L30.9306 13.672C30.8757 13.7402 30.8755 13.8374 30.9301 13.9058L31.1956 13.6937ZM87.3306 7.12838C87.3306 7.21282 87.2621 7.28127 87.1777 7.28127V6.94151C87.0745 6.94151 86.9908 7.02517 86.9908 7.12838H87.3306ZM80.9925 31.1281C81.0375 31.184 81.0375 31.2636 80.9925 31.3196L80.7276 31.1068C80.6727 31.1752 80.6727 31.2725 80.7276 31.3408L80.9925 31.1281ZM34.2662 17.6023C34.2662 17.5599 34.2518 17.5188 34.2253 17.4857L33.9598 17.6978C33.9382 17.6707 33.9264 17.637 33.9264 17.6023H34.2662ZM86.9908 9.99514C86.9908 10.0984 87.0745 10.182 87.1777 10.182V9.84225C87.2621 9.84225 87.3306 9.91069 87.3306 9.99514H86.9908ZM85.379 37.0743C85.5359 37.0743 85.6229 36.8927 85.5247 36.7704L85.2598 36.9832C85.1794 36.8831 85.2506 36.7346 85.379 36.7346V37.0743ZM34.0793 20.667C34.1825 20.667 34.2662 20.5833 34.2662 20.4801H33.9264C33.9264 20.3957 33.9949 20.3272 34.0793 20.3272V20.667ZM100.369 12.4722C100.466 12.3497 100.379 12.1689 100.223 12.1689V12.5087C100.095 12.5087 100.023 12.3607 100.103 12.2605L100.369 12.4722ZM81.6713 37.004C81.7068 37.0485 81.7605 37.0743 81.8174 37.0743V36.7346C81.8639 36.7346 81.9078 36.7557 81.9369 36.7921L81.6713 37.004ZM21.3362 20.4801C21.3362 20.5833 21.4199 20.667 21.5231 20.667V20.3272C21.6075 20.3272 21.676 20.3957 21.676 20.4801H21.3362ZM97.9401 15.4094C97.997 15.4094 98.0508 15.3835 98.0863 15.3389L97.8205 15.1273C97.8495 15.0909 97.8935 15.0696 97.9401 15.0696V15.4094ZM81.2435 26.5535C81.3417 26.4312 81.2546 26.2496 81.0978 26.2496V26.5893C80.9694 26.5893 80.8982 26.4408 80.9786 26.3407L81.2435 26.5535ZM21.676 7.12838C21.676 7.21282 21.6075 7.28127 21.5231 7.28127V6.94151C21.4199 6.94151 21.3362 7.02517 21.3362 7.12838H21.676Z" fill="#57B2CD" mask="url(#path-1-outside-1)"/>
</g>
<defs>
<filter id="filter0_d" x="0.0352468" y="0.146186" width="121.929" height="43.934" filterUnits="userSpaceOnUse" color-interpolation-filters="sRGB">
<feFlood flood-opacity="0" result="BackgroundImageFix"/>
<feColorMatrix in="SourceAlpha" type="matrix" values="0 0 0 0 0 0 0 0 0 0 0 0 0 0 0 0 0 0 127 0" result="hardAlpha"/>
<feOffset/>
<feGaussianBlur stdDeviation="3.39766"/>
<feComposite in2="hardAlpha" operator="out"/>
<feColorMatrix type="matrix" values="0 0 0 0 0.341176 0 0 0 0 0.698039 0 0 0 0 0.803922 0 0 0 0.6 0"/>
<feBlend mode="normal" in2="BackgroundImageFix" result="effect1_dropShadow"/>
<feBlend mode="normal" in="SourceGraphic" in2="effect1_dropShadow" result="shape"/>
</filter>
</defs>
</svg>
